<?xml version="1.0" encoding="UTF-8"?> <svg xmlns="http://www.w3.org/2000/svg" viewBox="0 0 253.76 253.76"><defs><style>.cls-1{fill:#2b9ad6;}</style></defs><title>Recurso 47</title><g id="Capa_2" data-name="Capa 2"><g id="Capa_1-2" data-name="Capa 1"><path class="cls-1" d="M126.88,3a31.77,31.77,0,0,1,22.63,9.33l91.92,91.92a32,32,0,0,1,0,45.25l-91.92,91.92a32.1,32.1,0,0,1-45.25,0L12.33,149.51a32,32,0,0,1,0-45.25l91.92-91.92A31.77,31.77,0,0,1,126.88,3m0-3a34.89,34.89,0,0,0-24.75,10.21L10.21,102.13a35.1,35.1,0,0,0,0,49.5l91.92,91.92a35.1,35.1,0,0,0,49.5,0l91.92-91.92a35.1,35.1,0,0,0,0-49.5L151.63,10.21A34.89,34.89,0,0,0,126.88,0Z"></path></g></g></svg> 