<?xml version="1.0" encoding="UTF-8"?> <svg xmlns="http://www.w3.org/2000/svg" viewBox="0 0 253.76 253.76"><defs><style>.cls-1{fill:#8457a3;}.cls-2,.cls-3{fill:#fff;}.cls-2{fill-rule:evenodd;}</style></defs><title>Recurso 39</title><g id="Capa_2" data-name="Capa 2"><g id="Capa_1-2" data-name="Capa 1"><rect class="cls-1" x="26.88" y="26.88" width="200" height="200" rx="35" ry="35" transform="translate(126.88 -52.56) rotate(45)"></rect><path class="cls-2" d="M135,159c1.52.87,2.89,1.56,4.32,2.3.27-.4.51-.73.72-1.06.62-1,1.22-2,1.83-2.92a12.54,12.54,0,0,1,4-4c1.27-.81,2.56-1.6,3.87-2.41.11-1.7.07-10.92-.07-11.91-.24-.06-.5-.16-.77-.22a24.23,24.23,0,0,1-11-5.22,23.37,23.37,0,0,1-8.31-15c-.13-1-.19-2-.22-3.05a4.79,4.79,0,0,1,.21-1.33,2.91,2.91,0,0,1,2.18-2.11,6.41,6.41,0,0,1,2.19-.23A24,24,0,0,1,147,116.6c.39.29.78.6,1.16.91s.76.62,1.11.92c.11-.07.23-.1.23-.14a43,43,0,0,0,.05-4.43,2.74,2.74,0,0,0-.58-.26,24.73,24.73,0,0,1-19.9-20,2,2,0,0,0-.07-.24c-.3-.29-.69-.2-1-.2h-6.63a4.48,4.48,0,0,1-1-.06.94.94,0,0,1-.77-.84.89.89,0,0,1,0-.12c0-1.84,0-3.69,0-5.53,0-.62.4-.92,1-1,.29,0,.57,0,.86,0h7.38a2.34,2.34,0,0,0,.21-.48,24.63,24.63,0,0,1,5-11.19c.15-.19.28-.39.46-.63-.21-.24-.39-.46-.58-.65-1.79-1.8-3.57-3.61-5.39-5.38-.79-.76-1-1.26,0-2.22s2.09-2.08,3.14-3.12c.11-.12.22-.24.35-.34a1,1,0,0,1,1.42,0c.22.19.41.4.62.6l5.3,5.29.84.81c1.58-.72,3.08-1.44,4.62-2.1a25.28,25.28,0,0,1,4.7-1.28,2.33,2.33,0,0,0,.15-1.22q0-3.57,0-7.12c0-.29,0-.58,0-.86,0-.8.26-1.07,1-1.08,1.8,0,3.6,0,5.4,0,.76,0,1,.28,1,1.08,0,.49,0,1,0,1.47,0,2.17,0,4.34,0,6.51a2.28,2.28,0,0,0,.16,1.25,25.26,25.26,0,0,1,11.43,5c.35-.32.65-.6.93-.89l5-4.94c.2-.21.4-.41.62-.6a1,1,0,0,1,1.42,0c1.32,1.29,2.62,2.59,3.91,3.91a.86.86,0,0,1,0,1.32c-.18.22-.39.41-.59.62l-5.21,5.21c-.29.29-.55.59-.87.93a25.59,25.59,0,0,1,3.95,10.05c.46,0,.87.06,1.26.06,2,0,4.09,0,6.14,0,1.38,0,1.57.19,1.58,1.55,0,1.63,0,3.27,0,4.91a1,1,0,0,1-1,1.06,4.12,4.12,0,0,1-.49,0h-6.26c-.4,0-.8,0-1.27.05A24.92,24.92,0,0,1,157,113.78a20.65,20.65,0,0,0,0,4.61c.43-.05.69-.38,1-.62,1.05-.78,2.07-1.61,3.18-2.31a22.54,22.54,0,0,1,10-3.42,9.68,9.68,0,0,1,3.29,0,3.26,3.26,0,0,1,2.62,2.73A9.32,9.32,0,0,1,177,118a25.18,25.18,0,0,1-3.51,10,23.5,23.5,0,0,1-13.28,10.12c-1,.33-2.12.58-3.24.89a3.49,3.49,0,0,0-.09.57q0,5.71,0,11.42a3.75,3.75,0,0,0,.06.43l.73.34c.71.32,1.44.59,2.12,1a13.5,13.5,0,0,1,6.2,7c.15.38.32.75.49,1.12,0,0,.06.05.2.18,1,.05,2.08.1,3.18.19a18.08,18.08,0,0,1,2.91.38,9.65,9.65,0,0,1,7.55,7.85,10.13,10.13,0,0,1-6.65,11.71,10.38,10.38,0,0,1-2.4.44c-4.09.3-8.19.19-12.27.19H134.53c-2.54,0-5.07,0-7.61,0a22.61,22.61,0,0,1-12.1-3.47,23.36,23.36,0,0,1-3.91-3.15q-7.79-7.84-15.55-15.71c-1-1-1.91-2-2.87-3a13,13,0,0,0-6-3.67,13.75,13.75,0,0,0-5.72-.29c-2.91.43-5.79,1-8.69,1.52-2.66.45-5.32.88-8,1.33l-8.22,1.37-7.5,1.24a3.5,3.5,0,0,1-3.92-2.59,3.38,3.38,0,0,1,2.31-4.17,15.36,15.36,0,0,1,2-.43l8.1-1.32L65,148l8.11-1.32c2.3-.38,4.6-.72,6.89-1.12a21.25,21.25,0,0,1,5.87-.3,15.63,15.63,0,0,1,8,3.16,26.7,26.7,0,0,1,2.66,2.36q8.81,8.83,17.58,17.68c.49.49,1,1,1.46,1.5a15.64,15.64,0,0,0,9,4.65,23.26,23.26,0,0,0,3.43.2q19.71,0,39.42,0c.78,0,1.56,0,2.33,0a4.81,4.81,0,0,0,1.8-.34,3.25,3.25,0,0,0,2-3.43,3.18,3.18,0,0,0-2.86-2.77,24.9,24.9,0,0,0-2.7-.12q-10,0-20,0c-2.41,0-4.83,0-7.25,0a14.36,14.36,0,0,1-4.71-.7,13.4,13.4,0,0,1-5.25-3.31c-2.17-2.17-4.33-4.36-6.5-6.53q-5-5-10.08-10.06a11.36,11.36,0,0,1-1.22-1.37,3.3,3.3,0,0,1-.32-3.38,3.26,3.26,0,0,1,4.39-1.75,4.64,4.64,0,0,1,1.49,1.06l3,3,6,5.95a5.51,5.51,0,0,0,2.15,1.37,3.29,3.29,0,0,0,2.28,0,3,3,0,0,0,1.87-3.15,3.83,3.83,0,0,0-1-2.2c-.52-.57-1.06-1.14-1.59-1.7l-19.45-20.32a13.67,13.67,0,0,0-7.81-4.29,24.66,24.66,0,0,0-3.91-.3q-18.61,0-37.21,0H49.84a23.74,23.74,0,0,1-2.45-.1,3.4,3.4,0,0,1-2.66-5,2.83,2.83,0,0,1,2-1.56,9,9,0,0,1,1.82-.21q26.59,0,53.18,0a19.76,19.76,0,0,1,14.74,6.2Q127.2,131,137.94,142.22a10.47,10.47,0,0,1,2.71,4.74,10.28,10.28,0,0,1-3.88,10.78C136.25,158.14,135.71,158.51,135,159Zm2-39.57a6.82,6.82,0,0,0,.73,2.73,17.24,17.24,0,0,0,7.72,8.25,10.89,10.89,0,0,0,2.75,1,4.1,4.1,0,0,0,.7,0c0-1.63-1.06-4.06-2.79-6.16A16.3,16.3,0,0,0,137,119.45Zm20.41,12.2c.3-.06.5-.08.69-.14a4.56,4.56,0,0,0,.59-.17,17,17,0,0,0,9.83-8.69,8.62,8.62,0,0,0,.52-1.37,3.76,3.76,0,0,0,.2-1.67C164.82,120.11,158.2,125.65,157.44,131.65Zm1.19,29.44c-.64-1.66-3.12-3.36-6-3.1-2.15.19-4.2,1.44-4.73,3C148.86,161.19,156.59,161.25,158.63,161.09Z"></path><circle class="cls-1" cx="153.48" cy="89.82" r="18.1"></circle><circle class="cls-3" cx="153.48" cy="89.82" r="4.95"></circle></g></g></svg> 