<?xml version="1.0" encoding="UTF-8"?> <svg xmlns="http://www.w3.org/2000/svg" viewBox="0 0 253.76 253.76"><defs><style>.cls-1{fill:#f7e111;}.cls-2,.cls-3{fill:#fff;}.cls-2{fill-rule:evenodd;}</style></defs><title>Recurso 43</title><g id="Capa_2" data-name="Capa 2"><g id="Capa_1-2" data-name="Capa 1"><rect class="cls-1" x="26.88" y="26.88" width="200" height="200" rx="35" ry="35" transform="translate(126.88 -52.56) rotate(45)"></rect><path class="cls-2" d="M108.41,128.51a1.69,1.69,0,0,0-.87,1,2.44,2.44,0,0,0,.62,1.24q5.82,8.77,11.67,17.52a5.32,5.32,0,0,1,1,2.81c.06,1.23.23,2.45.33,3.68.37,4.19.74,8.38,1.11,12.58q.51,5.71,1,11.43c.2,2.2.44,4.4.65,6.6a6.06,6.06,0,0,1,0,.78,3.77,3.77,0,0,1-.53.1c-1.91.1-14.77,0-15.77-.09a10.91,10.91,0,0,1-.26-1.18c-.22-1.81-.4-3.63-.6-5.45s-.43-3.8-.65-5.7-.41-3.71-.61-5.58-.44-4-.67-6c-.2-1.73-.41-3.46-.58-5.19a2.85,2.85,0,0,0-.58-1.51q-4.52-6-9-12c-.13-.16-.28-.3-.46-.49a1.21,1.21,0,0,0-.52.86q-1,3.28-2,6.57L81.1,184.81c-.14.44-.31.87-.45,1.28-1,.15-14.83.18-16.3,0-.2-.41,0-.81.13-1.19.69-2.85,1.41-5.69,2.12-8.53l9.34-37.61q2.29-9.22,4.58-18.43a5.32,5.32,0,0,1,.9-1.94c1.07-1.43,2.11-2.89,3.15-4.34.2-.27.37-.56.6-.9a2.72,2.72,0,0,0-.4-.47q-3.07-2.07-6.14-4.12a2.25,2.25,0,0,0-.34-.15c-.44.09-.61.46-.83.76a8.93,8.93,0,0,1-1.74,1.86,7.12,7.12,0,0,1-10.3-9.59c.69-1,1.42-2,2.13-3Q73.76,89.71,80,81a16.07,16.07,0,0,1,1.78-2.16,8.64,8.64,0,0,1,6.75-2.46,9.55,9.55,0,0,1,2.47.56c4.27,1.43,8.53,2.89,12.79,4.34,1.61.55,3.21,1.11,4.84,1.6a15.24,15.24,0,0,1,5,2.55c2,1.53,3.93,3.12,5.89,4.68,2.54,2,5,4,7.62,6a9.61,9.61,0,0,1,3.66,5.37c.59,2.26,1.15,4.53,1.7,6.8L140,138.95c.13.53.26,1.08.38,1.61a7.31,7.31,0,0,1-.28,4c-.1.27-.16.56-.24.85a2.54,2.54,0,0,0,.37.39l15,10a1.19,1.19,0,0,0,.34.09c.44-.22.56-.65.76-1,.72-1.3,1.38-2.64,2.13-3.92s1.66-2.77,2.56-4.11a19.4,19.4,0,0,1,1.72-2,6.16,6.16,0,0,1,1-.83,4.26,4.26,0,0,1,4.45-.59,12.87,12.87,0,0,1,3.27,2,36.44,36.44,0,0,1,2.75,2.47,54.22,54.22,0,0,1,8.4,11.2,64.24,64.24,0,0,1,7,16.91,50.93,50.93,0,0,1,1.34,9.07,1.51,1.51,0,0,1-.14,1.08.56.56,0,0,1-.12.11l-.12,0-58.44,0c-.21,0-.43,0-.64,0a1.68,1.68,0,0,1-.33-.13,7.1,7.1,0,0,1-.1-.92,29.43,29.43,0,0,1,.63-5.57A48.27,48.27,0,0,1,136.36,166a23,23,0,0,1,2.95-4.46c.25-.29.51-.57.78-.84a3.17,3.17,0,0,1,3.64-.74,8.79,8.79,0,0,1,1.67.92c.5.32,1,.71,1.43,1.06.2.15.42.3.63.44a3,3,0,0,0,3.87-.22,9,9,0,0,0,2.55-3.37c-.24-.19-.49-.42-.76-.6l-14.43-9.63-.43-.28a1,1,0,0,0-1.19,0,7.5,7.5,0,0,1-2.86,1,7,7,0,0,1-6.66-2.66,7.15,7.15,0,0,1-1.36-2.71c-.27-1-.59-2-.8-3.08a3.09,3.09,0,0,0-1.48-2.1c-3.67-2.39-7.3-4.83-10.95-7.26L109.24,129C109,128.81,108.67,128.66,108.41,128.51ZM97.47,96.27a63.37,63.37,0,0,0-8-2.93c-.2.22-.44.44-.64.71-.57.74-1.13,1.49-1.69,2.24-2.09,2.78-4.19,5.57-6.28,8.36-.25.33-.61.61-.55,1.19,2,1.44,4.17,2.81,6.28,4.23a3,3,0,0,0,.61.24c.19-.2.39-.36.55-.56C89.83,107.12,97,97.24,97.47,96.27Zm26,38.19c.05-.13.12-.22.1-.28q-2.32-8.94-4.66-17.87c0-.11-.15-.19-.27-.34a3.25,3.25,0,0,0-.47.42q-3.7,4.47-7.38,8.95a2.49,2.49,0,0,0-.26.53c.66.62,11,7.62,12.49,8.46A1.93,1.93,0,0,0,123.47,134.45Z"></path><path class="cls-2" d="M123.34,63.55c.33-.19.51-.38.65-.35a3.58,3.58,0,0,1,1,.31c1.62.74,3.25,1.48,4.86,2.26,4.51,2.19,9,4.35,13.51,6.62,2.23,1.13,4.35,2.5,6.51,3.77.29.17.55.39.79.56.49,6.07-4.66,13-11.29,15.13a16.5,16.5,0,0,1-19.22-7,16,16,0,0,1-2.49-10c.25-3.17,1.36-6.19,2.58-7.45.42.18.6.58.85.92.47.6.91,1.24,1.4,1.82s.91.79,1.77.42c.66-.29,1.32-.6,2-.92a2.37,2.37,0,0,1,2.32,0c1.28.67,2.58,1.3,3.87,1.94.34.17.69.33,1,.49a1.26,1.26,0,0,0,1.34-.09c.76-.54,1.5-1.1,2.25-1.67.06,0,.06-.15.11-.27a2.6,2.6,0,0,0-1.15-.71l-7.86-3.65Z"></path><path class="cls-2" d="M97.47,96.27c-.51,1-7.64,10.86-9.72,13.49-.16.19-.35.35-.55.56a3,3,0,0,1-.61-.24c-2.11-1.42-4.26-2.78-6.28-4.23-.06-.58.3-.87.55-1.19,2.09-2.79,4.19-5.57,6.28-8.36.56-.75,1.12-1.5,1.69-2.24.2-.26.44-.49.64-.71A63.37,63.37,0,0,1,97.47,96.27Z"></path><path class="cls-2" d="M123.47,134.45a1.93,1.93,0,0,1-.45-.13c-1.51-.84-11.82-7.84-12.49-8.46a2.49,2.49,0,0,1,.26-.53q3.68-4.49,7.38-8.95a3.25,3.25,0,0,1,.47-.42c.12.15.25.23.27.34q2.34,8.94,4.66,17.87C123.59,134.23,123.52,134.33,123.47,134.45Z"></path><path class="cls-3" d="M119.7,64.11l-1,3.08a4.71,4.71,0,0,1,.51.94c.24.56,2,3.26,2,3.26s.47.75,2.05,0,2.9-1.4,4.48-.65,4.67,2.15,4.67,2.15a1.52,1.52,0,0,0,2.05,0,13.77,13.77,0,0,1,2.43-1.68Z"></path><path class="cls-3" d="M154.29,80.12a153.07,153.07,0,0,0-35.62-17.81V58.7s2.87,1.13,4.36-3.36c0,0,7.47-13.7,24.28-5.85,0,0,13.7,8.59,7,21.54,0,0-1.62,2.49-.75,2.86s5.23,3.61,4.11,6.23C157.65,80.12,155.25,80.78,154.29,80.12Z"></path><path class="cls-3" d="M131.9,50.39s5.55-3.64,14.23,1.12c0,0,8.13,5.6,7.75,12.23C153.88,63.74,149.06,48.71,131.9,50.39Z"></path></g></g></svg> 