<?xml version="1.0" encoding="UTF-8"?> <svg xmlns="http://www.w3.org/2000/svg" xmlns:xlink="http://www.w3.org/1999/xlink" viewBox="0 0 253.76 253.76"><defs><style>.cls-1{fill:url(#Degradado_sin_nombre_56);}.cls-2,.cls-4{fill:#f16522;}.cls-2,.cls-3{fill-rule:evenodd;}.cls-3{fill:#fff;}</style><linearGradient id="Degradado_sin_nombre_56" y1="126.88" x2="253.76" y2="126.88" gradientTransform="translate(-52.56 126.88) rotate(-45)" gradientUnits="userSpaceOnUse"><stop offset="0" stop-color="#f8f8f8"></stop><stop offset="1" stop-color="#dcdcdc"></stop></linearGradient></defs><title>Recurso 34</title><g id="Capa_2" data-name="Capa 2"><g id="Capa_1-2" data-name="Capa 1"><rect class="cls-1" x="26.88" y="26.88" width="200" height="200" rx="35" ry="35" transform="translate(126.88 -52.56) rotate(45)"></rect><path class="cls-2" d="M144.37,66.11c0,.61,0,.94,0,1.25a2.85,2.85,0,0,0,.68,2.12l.39.46a6.48,6.48,0,0,1,1.4,5.75,12.42,12.42,0,0,1-1.37,3.71,8,8,0,0,1-3.25,3.31,3.39,3.39,0,0,0-1.52,1.63A31,31,0,0,1,136,91.42a20,20,0,0,1-4.29,3.66,5.68,5.68,0,0,1-3.44.88l-.36,0a14.83,14.83,0,0,0-3.84,0,6.23,6.23,0,0,1-4.43-1.16,19.94,19.94,0,0,1-5.11-5.05c-.91-1.28-1.7-2.63-2.52-4-.38-.61-.72-1.25-1.06-1.89a2.48,2.48,0,0,0-1-1,9.54,9.54,0,0,1-4.72-6.52,8.47,8.47,0,0,1-.25-3,6,6,0,0,1,1.76-3.74,2.55,2.55,0,0,0,.78-1.93c0-1,0-2.09.11-3.13a19.09,19.09,0,0,1,6.18-12.81,15.75,15.75,0,0,1,7.2-3.71,21.56,21.56,0,0,1,8.12-.43,16.69,16.69,0,0,1,8,3.38,17.73,17.73,0,0,1,7,12.56C144.21,64.48,144.31,65.44,144.37,66.11Zm-4.12,8.55a3.83,3.83,0,0,1-.67,2.28,6.86,6.86,0,0,1-6.65,3.52,6.75,6.75,0,0,1-5.45-3.09c-.22-.33-.39-.7-.6-1a3.39,3.39,0,0,0-.4-.59.71.71,0,0,0-1.15,0,4.52,4.52,0,0,0-.56.92c-1.76,3.49-7.48,5.6-11.3,1.81l-.17-.17a4.67,4.67,0,0,1-1.67-4,3.15,3.15,0,0,0,0-.36,2.72,2.72,0,0,0-.82-1.82,1,1,0,0,0-1.65.08,3,3,0,0,0-.66,2.37A7.37,7.37,0,0,0,110,78.36,3.9,3.9,0,0,0,112.48,80a1.4,1.4,0,0,1,1.19,1c.12.34.27.67.41,1a25.85,25.85,0,0,0,3.59,6A21.11,21.11,0,0,0,121,91.4a3.76,3.76,0,0,0,3.37.85,6.07,6.07,0,0,1,2.86,0,3.86,3.86,0,0,0,3.1-.58,5.88,5.88,0,0,0,.77-.57,26.3,26.3,0,0,0,6.76-9.41l.3-.78a1.48,1.48,0,0,1,.9-.92c.23-.08.45-.17.67-.26a6,6,0,0,0,3.58-5.65,2.27,2.27,0,0,0-1.4-2.2.93.93,0,0,0-1.11.22,2,2,0,0,0-.69,1.83A5,5,0,0,1,140.25,74.66Zm-15.93-8.1a5.19,5.19,0,0,1-.63,0,10,10,0,0,1-4.2-1.7c-.73-.49-1.43-1-2.14-1.55a12.26,12.26,0,0,0-1.3-.86,2.51,2.51,0,0,0-3.48.84,7.13,7.13,0,0,0-1,2.17,10.9,10.9,0,0,0-.12,5.12,5.41,5.41,0,0,0,.59,2.12,3.3,3.3,0,0,0,.51-.32,5.48,5.48,0,0,1,2.55-1.28,14.51,14.51,0,0,1,7,.07,5.1,5.1,0,0,1,2.39,1.32,2.07,2.07,0,0,0,2.9.06,7.18,7.18,0,0,1,2.75-1.43,11.37,11.37,0,0,1,8.73,1l.93.48a6.6,6.6,0,0,0,.09-.91,25.17,25.17,0,0,0-1-5.54,1.79,1.79,0,0,0-1.44-1.43c-.15,0-.31-.1-.46-.14a18.61,18.61,0,0,1-4-1.56c-1.18-.6-2.36-1.2-3.54-1.79-.19-.09-.4-.3-.68,0a4,4,0,0,0,.14.53,7.26,7.26,0,0,0,1.45,2.34c.77.82,1.6,1.57,2.4,2.36.13.13.37.21.27.47,0,0-.06.06-.1.06a3.09,3.09,0,0,1-.47,0,11.3,11.3,0,0,1-7.79-3.27c-.32-.31-.6-.65-.91-1a2.16,2.16,0,0,0-.48-.25C123.23,64,124.16,65.14,124.32,66.56Zm-6.06,11.57a5.11,5.11,0,0,0,2.3-.48,4.55,4.55,0,0,0,2.27-2.38,1.06,1.06,0,0,0-.54-1.5,1.94,1.94,0,0,0-.45-.16c-1-.21-2-.42-3.06-.59a3.46,3.46,0,0,0-1,0c-.48.06-1,.13-1.42.23a12,12,0,0,0-1.74.47,1.09,1.09,0,0,0-.64,1.48,3,3,0,0,0,.26.54A4.64,4.64,0,0,0,118.26,78.13Zm14.89,0a4.86,4.86,0,0,0,4.55-2.63,1.16,1.16,0,0,0-.68-1.82,3.33,3.33,0,0,0-.69-.21c-.59-.12-1.19-.19-1.77-.33-1.68-.38-3.25.16-4.83.55a1.06,1.06,0,0,0-.32.16,1,1,0,0,0-.48,1.13,2.8,2.8,0,0,0,.32.77A4.6,4.6,0,0,0,133.15,78.13Z"></path><path class="cls-2" d="M113.7,95a2.3,2.3,0,0,1,.56,1.14c.38,1.14.74,2.29,1.18,3.41a9.12,9.12,0,0,0,3.26,4,8.7,8.7,0,0,0,.7-.68c.93-1.11,1.83-2.24,2.76-3.35.25-.3.52-.59.81-.91a2.08,2.08,0,0,1,1.4,1.83c0,.36,0,.72,0,1.08q0,6.32,0,12.65v1.4a3.81,3.81,0,0,1-.62.16c-.35,0-.72,0-1.08,0H92.3l-1.62,0a7.18,7.18,0,0,1,0-.75c.08-1.4.16-2.8.29-4.2a15.2,15.2,0,0,1,.82-3.63,10.29,10.29,0,0,1,5.73-6.33c2-.87,4-1.67,6-2.41,3.06-1.1,6.14-2.12,9.21-3.17C113.05,95.1,113.41,95,113.7,95Z"></path><path class="cls-2" d="M161.19,115.58a1.19,1.19,0,0,1-.34.11H128a3,3,0,0,1-.52-.11c0-.25,0-.48,0-.7,0-1.29,0-2.57,0-3.85q0-4.94-.07-9.87a2.38,2.38,0,0,1,1.44-2.55,25.25,25.25,0,0,1,2.13,2.45,27.63,27.63,0,0,0,2,2.4,3.7,3.7,0,0,0,1.44-1.08,11.66,11.66,0,0,0,2.72-4.76c.21-.69.33-1.4.5-2.1,0-.18.1-.37.18-.62.4.09.75.15,1.08.26,4.58,1.59,9.16,3.18,13.74,4.8a13.12,13.12,0,0,1,4.06,2.31,11.38,11.38,0,0,1,4,7.1c.25,1.5.35,3,.49,4.54C161.23,114.42,161.19,114.94,161.19,115.58Z"></path><path class="cls-3" d="M140.25,74.66a5,5,0,0,0-.07-.72,2,2,0,0,1,.69-1.83.93.93,0,0,1,1.11-.22,2.27,2.27,0,0,1,1.4,2.2,6,6,0,0,1-3.58,5.65c-.23.09-.45.19-.67.26a1.48,1.48,0,0,0-.9.92l-.3.78a26.3,26.3,0,0,1-6.76,9.41,5.88,5.88,0,0,1-.77.57,3.86,3.86,0,0,1-3.1.58,6.07,6.07,0,0,0-2.86,0A3.76,3.76,0,0,1,121,91.4,21.11,21.11,0,0,1,117.67,88a25.85,25.85,0,0,1-3.59-6c-.14-.33-.29-.66-.41-1a1.4,1.4,0,0,0-1.19-1A3.9,3.9,0,0,1,110,78.36a7.37,7.37,0,0,1-1.52-3.75,3,3,0,0,1,.66-2.37,1,1,0,0,1,1.65-.08,2.72,2.72,0,0,1,.82,1.82,3.15,3.15,0,0,1,0,.36,4.67,4.67,0,0,0,1.67,4l.17.17c3.81,3.8,9.54,1.68,11.3-1.81a4.52,4.52,0,0,1,.56-.92.71.71,0,0,1,1.15,0,3.39,3.39,0,0,1,.4.59c.21.34.38.71.6,1a6.75,6.75,0,0,0,5.45,3.09,6.86,6.86,0,0,0,6.65-3.52A3.83,3.83,0,0,0,140.25,74.66Z"></path><path class="cls-3" d="M124.32,66.56c-.16-1.42-1.09-2.55-1.12-4a2.16,2.16,0,0,1,.48.25c.31.31.59.65.91,1A11.3,11.3,0,0,0,132.39,67a3.09,3.09,0,0,0,.47,0s.06,0,.1-.06c.09-.26-.15-.34-.27-.47-.8-.79-1.63-1.55-2.4-2.36a7.26,7.26,0,0,1-1.45-2.34,4,4,0,0,1-.14-.53c.28-.29.5-.08.68,0,1.19.58,2.36,1.19,3.54,1.79a18.61,18.61,0,0,0,4,1.56c.15,0,.3.11.46.14a1.79,1.79,0,0,1,1.44,1.43,25.17,25.17,0,0,1,1,5.54,6.6,6.6,0,0,1-.09.91l-.93-.48a11.37,11.37,0,0,0-8.73-1,7.18,7.18,0,0,0-2.75,1.43,2.07,2.07,0,0,1-2.9-.06,5.1,5.1,0,0,0-2.39-1.32,14.51,14.51,0,0,0-7-.07,5.48,5.48,0,0,0-2.55,1.28,3.3,3.3,0,0,1-.51.32,5.41,5.41,0,0,1-.59-2.12,10.9,10.9,0,0,1,.12-5.12,7.13,7.13,0,0,1,1-2.17,2.51,2.51,0,0,1,3.48-.84,12.26,12.26,0,0,1,1.3.86c.72.51,1.41,1.06,2.14,1.55a10,10,0,0,0,4.2,1.7A5.19,5.19,0,0,0,124.32,66.56Z"></path><path class="cls-3" d="M118.26,78.13a4.64,4.64,0,0,1-4-2.37,3,3,0,0,1-.26-.54,1.09,1.09,0,0,1,.64-1.48,12,12,0,0,1,1.74-.47c.47-.1.94-.17,1.42-.23a3.46,3.46,0,0,1,1,0c1,.18,2,.39,3.06.59a1.94,1.94,0,0,1,.45.16,1.06,1.06,0,0,1,.54,1.5,4.55,4.55,0,0,1-2.27,2.38A5.11,5.11,0,0,1,118.26,78.13Z"></path><path class="cls-3" d="M133.15,78.13a4.6,4.6,0,0,1-3.91-2.38,2.8,2.8,0,0,1-.32-.77,1,1,0,0,1,.48-1.13,1.06,1.06,0,0,1,.32-.16c1.58-.39,3.15-.93,4.83-.55.58.13,1.18.21,1.77.33a3.33,3.33,0,0,1,.69.21,1.16,1.16,0,0,1,.68,1.82A4.86,4.86,0,0,1,133.15,78.13Z"></path><circle class="cls-4" cx="127.04" cy="150.55" r="6.94"></circle><path class="cls-2" d="M179.76,192.12a1.76,1.76,0,0,1-1.76,1.76H77a1.76,1.76,0,0,1-1.76-1.76h0A1.75,1.75,0,0,1,77,190.37H178a1.75,1.75,0,0,1,1.76,1.75Z"></path><path class="cls-4" d="M175.06,187.77H78.85a7.36,7.36,0,0,1-7.2-7.48L60.37,122.38a7.39,7.39,0,0,1,7.18-7.73H185.31a7.36,7.36,0,0,1,7.2,7.48l-10.27,58.39A7.28,7.28,0,0,1,175.06,187.77ZM67.56,117.25a4.75,4.75,0,0,0-4.61,4.88L74.23,180a4.86,4.86,0,0,0,4.63,5.13h96.21a4.75,4.75,0,0,0,4.6-4.88l10.28-58.39a4.73,4.73,0,0,0-4.63-4.66Z"></path></g></g></svg> 