<?xml version="1.0" encoding="UTF-8"?> <svg xmlns="http://www.w3.org/2000/svg" viewBox="0 0 253.76 253.76"><defs><style>.cls-1{fill:#2b9ad6;}.cls-2{fill:#fff;fill-rule:evenodd;}</style></defs><title>Recurso 46</title><g id="Capa_2" data-name="Capa 2"><g id="Capa_1-2" data-name="Capa 1"><rect class="cls-1" x="26.88" y="26.88" width="200" height="200" rx="35" ry="35" transform="translate(126.88 -52.56) rotate(45)"></rect><path class="cls-2" d="M86.09,147.3c-5.62-.38-11.23-.21-16.83-.57-.17-.43.17-.65.33-.91q3.93-5.9,7.88-11.76c3.22-4.81,6.47-9.59,9.65-14.42Q98.59,102.21,110,84.78a18,18,0,0,1,1.6-2.15,8.56,8.56,0,0,1,4.73-2.83,8.3,8.3,0,0,1,4.27.24,11.31,11.31,0,0,1,2.87,1.37c4,2.66,8.1,5.32,12.13,8a10.93,10.93,0,0,1,1.94,1.66,8.2,8.2,0,0,1,1.82,8.86,10.69,10.69,0,0,1-1.06,2.17c-1.78,2.76-3.59,5.47-5.4,8.2a4,4,0,0,1-.38.44,20.77,20.77,0,0,1-1.35-3.19c-.45-1.1-.87-2.21-1.3-3.32l-1.25-3.2c-.44-1.11-.86-2.22-1.3-3.32a24.26,24.26,0,0,0-1.42-3.14,2.94,2.94,0,0,0,0,.55q.58,4.8,1.17,9.62c.35,3,.74,6,1,9a2.41,2.41,0,0,0,1.51,2.14c5,2.53,10.08,5.1,15.12,7.65.56.29,1.14.57,1.68.91a6.32,6.32,0,0,1,3.06,4.34,5.34,5.34,0,0,1-.28,2.89,5.91,5.91,0,0,1-7.25,3.59,11.89,11.89,0,0,1-1.87-.79c-3.74-1.91-7.47-3.86-11.22-5.77-2.39-1.2-4.77-2.42-7.2-3.53a8.06,8.06,0,0,1-5-6.61c-.18-1.3-.3-2.62-.45-3.93q-.63-5.39-1.25-10.77c-.2-1.73-.4-3.47-.6-5.19a2,2,0,0,0-.42-1.29c-.11.62-.24,1.14-.31,1.67-.37,3.3-.72,6.59-1.09,9.89s-.7,6.34-1.06,9.5a9.81,9.81,0,0,0,2.7,8.08,14.15,14.15,0,0,0,3.6,2.81l1.75.94-.47,1.27,4.19,5.53,4.17,5.48c1.4,1.85,2.82,3.69,4.3,5.69-1.41.18-2.63-.06-3.89.1a1.73,1.73,0,0,0-.14.45,31.65,31.65,0,0,1-.67,5.81c-.49,3.11-1,6.22-1.45,9.33-.58,3.82-1.13,7.65-1.69,11.47-.28,1.94-.56,3.88-.84,5.81-.08.56-.16,1.09-.27,1.64a7.17,7.17,0,0,1-5.31,5.62c-1.22.09-2.45.32-3.61-.32-.63-.34-1.32-.58-1.92-1a5.61,5.61,0,0,1-2.68-4.68,18.85,18.85,0,0,1,.15-3.18c.59-4.21,1.24-8.41,1.86-12.61.73-4.92,1.43-9.84,2.15-14.76.06-.42.15-.83.19-1.25a2.94,2.94,0,0,0-.22-1.5,1.89,1.89,0,0,0-2-1.37c-.8.06-1.61,0-2.42,0l-7.4-.19c-.45,0-.91,0-1.46,0,0,.49-.06.91-.06,1.32,0,2.93.08,5.87.11,8.8a9.37,9.37,0,0,1-.25,2.66,8.7,8.7,0,0,1-2,3.53l-6.47,7.39L80.34,184.11c-.53.62-1.06,1.23-1.62,1.8a16.1,16.1,0,0,1-1.53,1.35c-3.42,2.67-7.91,1-9.74-2a6.51,6.51,0,0,1-.19-6.8,9.42,9.42,0,0,1,1.24-1.77q8-9.14,15.93-18.28c.39-.44.79-.89,1.17-1.36a3,3,0,0,0,.73-2q0-3.64-.11-7.28A2.55,2.55,0,0,0,86.09,147.3Z"></path><path class="cls-2" d="M156.12,62.8c.24.08.51.2.79.28a45.55,45.55,0,0,1,5.63,2,29.77,29.77,0,0,1,3,1.61,5,5,0,0,1,1.3,1.2,1.26,1.26,0,0,1-.3,2,6,6,0,0,1-1.59.79,17.54,17.54,0,0,1-4.11.78,53.61,53.61,0,0,1-6,.23c-.24,0-.48.05-.8.09-.06.72-.07,1.4-.18,2.06a14.87,14.87,0,0,1-.5,2.11,12.31,12.31,0,0,1-.78,1.88,15.1,15.1,0,0,1-1.15,1.83,11.81,11.81,0,0,1-1.33,1.54,14.72,14.72,0,0,1-1.66,1.38,12.68,12.68,0,0,1-1.75,1,13.42,13.42,0,0,1-2,.8,11.78,11.78,0,0,1-2,.41,15.18,15.18,0,0,1-2.16.13,12.48,12.48,0,0,1-2-.25c-5.85-1.11-12.29-7.21-10-16.69l-1.19-.38a43.78,43.78,0,0,1-6.47-2.31,23.53,23.53,0,0,1-2.77-1.57A4.3,4.3,0,0,1,117,62.57a1.15,1.15,0,0,1,.26-1.7A5.67,5.67,0,0,1,118.8,60a16.32,16.32,0,0,1,3.86-.79,51.89,51.89,0,0,1,6.75-.26h.73c3.34-6.13,8.32-9.06,15.28-7.84C149.61,51.87,154.84,55.17,156.12,62.8Z"></path><path class="cls-2" d="M157.13,188.56H132.25a6.33,6.33,0,0,0-.89,0,1.63,1.63,0,0,1-1.78-1.14,4.2,4.2,0,0,1-.38-1.85c0-1.74,0-3.48,0-5.23s0-3.57,0-5.36a9.23,9.23,0,0,1,.12-1.39,1.8,1.8,0,0,1,1.58-1.61,7.86,7.86,0,0,1,1.26-.16q3,0,6,0a6.62,6.62,0,0,1,1,.1,2,2,0,0,1,1.63,1.43c0,.12.07.25.1.37a10.79,10.79,0,0,0,5.18,6.22,22.3,22.3,0,0,0,6.31,2.3,22.06,22.06,0,0,0,5.19.53,22.4,22.4,0,0,0,10.9-3.12,10.25,10.25,0,0,0,4.74-5.93,2.22,2.22,0,0,1,2.51-1.87c2.21,0,4.42,0,6.63,0a5.08,5.08,0,0,1,.51,0,1.93,1.93,0,0,1,1.92,2.12c.06,1.74,0,3.48,0,5.22,0,2,0,3.91,0,5.87,0,.56,0,1.11-.06,1.66a2.17,2.17,0,0,1-.66,1.35,1.29,1.29,0,0,1-1,.47h-26Z"></path><path class="cls-2" d="M165,159.25a4.92,4.92,0,0,1-5-5,5,5,0,1,1,5,5Z"></path><path class="cls-2" d="M156.5,142.93a5,5,0,1,1-5-5A5,5,0,0,1,156.5,142.93Z"></path><path class="cls-2" d="M148,166.37a5,5,0,1,1,5,5A4.93,4.93,0,0,1,148,166.37Z"></path></g></g></svg> 