<?xml version="1.0" encoding="UTF-8"?> <svg xmlns="http://www.w3.org/2000/svg" xmlns:xlink="http://www.w3.org/1999/xlink" viewBox="0 0 253.76 253.76"><defs><style>.cls-1{fill:url(#Degradado_sin_nombre_56);}.cls-2{fill:#fff;}.cls-3{fill:#71c9c9;}.cls-3,.cls-4{fill-rule:evenodd;}.cls-4{fill:url(#Degradado_sin_nombre_56-2);}</style><linearGradient id="Degradado_sin_nombre_56" y1="126.88" x2="253.76" y2="126.88" gradientTransform="translate(-52.56 126.88) rotate(-45)" gradientUnits="userSpaceOnUse"><stop offset="0" stop-color="#f8f8f8"></stop><stop offset="1" stop-color="#dcdcdc"></stop></linearGradient><linearGradient id="Degradado_sin_nombre_56-2" x1="152.93" y1="138.7" x2="177.48" y2="138.7" gradientTransform="matrix(1, 0, 0, 1, 0, 0)" xlink:href="#Degradado_sin_nombre_56"></linearGradient></defs><title>Recurso 32</title><g id="Capa_2" data-name="Capa 2"><g id="Capa_1-2" data-name="Capa 1"><rect class="cls-1" x="26.88" y="26.88" width="200" height="200" rx="35" ry="35" transform="translate(126.88 -52.56) rotate(45)"></rect><path class="cls-2" d="M188.66,96.73c-.57,0-1.06,0-1.55,0l-28.11,0c-1.36,0-2.72,0-4.08-.06A8.09,8.09,0,0,1,149,93.82q-8.48-9.64-16.63-19.54a72.67,72.67,0,0,1-5-6.74,60.1,60.1,0,0,1-6.77-14.45,22.12,22.12,0,0,0-1.05-2.79,7.17,7.17,0,0,0-1.2-1.79,2.6,2.6,0,0,0-2.85-.74,5.94,5.94,0,0,0-2.12,1.17,21.44,21.44,0,0,0-6.61,9.29,18.71,18.71,0,0,0-.4,10.7A67.15,67.15,0,0,0,112,84.28,95,95,0,0,0,118.42,95a3.37,3.37,0,0,1,.68,1.17,20.56,20.56,0,0,1-3.06.94c.21.37.4.71.61,1a21.49,21.49,0,0,1,1.73,3.34,15.76,15.76,0,0,1,1.26,6.93,14.87,14.87,0,0,1-2,6.55c-.18.3-.34.61-.55,1l1.8,1.27c1.21.85,2.44,1.66,3.62,2.56a8.18,8.18,0,0,1,2.82,3.83,17,17,0,0,1,.63,8.94,9,9,0,0,1-5.36,6.72,25.07,25.07,0,0,1-2.43.86c-.46.15-1,.25-1.53.41.19.41.38.76.54,1.12.55,1.23,1.18,2.45,1.62,3.73a14,14,0,0,1-.34,10.2,9.25,9.25,0,0,1-8.17,6l-.79.11a3.17,3.17,0,0,0,.67,1.4,15.78,15.78,0,0,1,2.28,9.07,16.6,16.6,0,0,1-1.5,5.89c-.64,1.39-1.42,2.73-2.12,4.09a3.75,3.75,0,0,0-.18.66c1.33-.05,2.55-.07,3.76-.15,2.9-.2,5.79-.13,8.69-.05a157.38,157.38,0,0,0,18.59-.13,47.56,47.56,0,0,0,7.34-1.25c1.31-.33,2.59-.73,3.93-1.12.49.68.39,1.57.8,2.24,1.18.17,22.42.23,35.87.12.35,0,.7,0,1.13,0,0-.34.07-.6.07-.85C189,174.52,188.87,98.24,188.66,96.73ZM91.9,119v0H70a12.94,12.94,0,0,0-4.37.67A8.12,8.12,0,0,0,59.94,126a13.06,13.06,0,0,0,1.87,9.49,6.2,6.2,0,0,0,3.72,2.77,13.65,13.65,0,0,0,3.76.46H113c.86,0,1.71-.09,2.57-.17a6.79,6.79,0,0,0,6.06-4.52,13.87,13.87,0,0,0,1-6.91,11,11,0,0,0-1.69-5,6.19,6.19,0,0,0-4.52-2.92,20.08,20.08,0,0,0-2.56-.21Q102.89,119,91.9,119ZM89.3,140.44v0H71.8a17.32,17.32,0,0,0-3.24.25,5.63,5.63,0,0,0-4.89,4.61,9.32,9.32,0,0,0-.16.93,26.51,26.51,0,0,0,0,6.23,13.46,13.46,0,0,0,1.35,4.39,5.35,5.35,0,0,0,3.57,2.89,14.93,14.93,0,0,0,3.63.39c2.67,0,5.34,0,8,0q13,0,26.05,0a31.84,31.84,0,0,0,3.39-.17,6.89,6.89,0,0,0,5.78-3.93,13,13,0,0,0,1.31-4.11,12.2,12.2,0,0,0-1.16-7.38,6.78,6.78,0,0,0-4.37-3.59,12.59,12.59,0,0,0-3.34-.46ZM89,117.34v.05h15.48c.9,0,1.81,0,2.71-.11a10.91,10.91,0,0,0,6.18-2.55,7.07,7.07,0,0,0,1.76-2.34,11.85,11.85,0,0,0,.41-8.37,14.8,14.8,0,0,0-1.54-3.9,6.34,6.34,0,0,0-4.26-3.1,15.21,15.21,0,0,0-2.69-.31c-1.4-.05-2.81,0-4.21,0H76.24a15,15,0,0,0-4.66.67,10.49,10.49,0,0,0-7.28,7.34,11.07,11.07,0,0,0-.24,5,12.9,12.9,0,0,0,1.74,4.67,5.89,5.89,0,0,0,4.62,3c.45,0,.9.1,1.35.09Zm1.18,65.37h0c2.62,0,5.25,0,7.87,0a30,30,0,0,0,3.65-.25,6.61,6.61,0,0,0,5.62-4.32c.15-.37.3-.76.42-1.14a19.55,19.55,0,0,0,.42-9.39,12.89,12.89,0,0,0-.67-2.34,5.77,5.77,0,0,0-4.15-3.58,11.43,11.43,0,0,0-2.69-.24c-2,0-4,.09-6,.09-5,0-9.93,0-14.9,0a13.54,13.54,0,0,0-3.92.51,7.9,7.9,0,0,0-4.54,3.22,11.26,11.26,0,0,0-1.66,9c1,4.46,4,7.16,8.59,8.2a18.11,18.11,0,0,0,3.31.34Z"></path><path class="cls-3" d="M188.66,96.73c.21,1.51.31,77.79.13,84.87,0,.26,0,.52-.07.85-.43,0-.78,0-1.13,0-13.46.11-34.69,0-35.87-.12-.4-.68-.31-1.57-.8-2.24-1.34.38-2.62.78-3.93,1.12a47.56,47.56,0,0,1-7.34,1.25,157.38,157.38,0,0,1-18.59.13c-2.89-.07-5.79-.15-8.69.05-1.21.08-2.43.1-3.76.15a3.75,3.75,0,0,1,.18-.66c.7-1.36,1.48-2.7,2.12-4.09a16.6,16.6,0,0,0,1.5-5.89,15.78,15.78,0,0,0-2.28-9.07,3.17,3.17,0,0,1-.67-1.4l.79-.11a9.25,9.25,0,0,0,8.17-6,14,14,0,0,0,.34-10.2c-.44-1.28-1.07-2.49-1.62-3.73-.16-.36-.34-.72-.54-1.12.58-.15,1.07-.25,1.53-.41a25.07,25.07,0,0,0,2.43-.86,9,9,0,0,0,5.36-6.72,17,17,0,0,0-.63-8.94,8.18,8.18,0,0,0-2.82-3.83c-1.17-.9-2.41-1.7-3.62-2.56l-1.8-1.27c.21-.39.37-.7.55-1a14.87,14.87,0,0,0,2-6.55,15.76,15.76,0,0,0-1.26-6.93,21.49,21.49,0,0,0-1.73-3.34c-.21-.34-.4-.68-.61-1a20.56,20.56,0,0,0,3.06-.94,3.37,3.37,0,0,0-.68-1.17A95,95,0,0,1,112,84.28a67.15,67.15,0,0,1-5.69-15.35,18.71,18.71,0,0,1,.4-10.7,21.44,21.44,0,0,1,6.61-9.29,5.94,5.94,0,0,1,2.12-1.17,2.6,2.6,0,0,1,2.85.74,7.17,7.17,0,0,1,1.2,1.79,22.12,22.12,0,0,1,1.05,2.79,60.1,60.1,0,0,0,6.77,14.45,72.67,72.67,0,0,0,5,6.74q8.15,9.91,16.63,19.54a8.09,8.09,0,0,0,5.95,2.79c1.35.07,2.71.06,4.08.06l28.11,0C187.6,96.69,188.09,96.71,188.66,96.73Z"></path><path class="cls-3" d="M91.9,119q11,0,22,0a20.08,20.08,0,0,1,2.56.21,6.19,6.19,0,0,1,4.52,2.92,11,11,0,0,1,1.69,5,13.87,13.87,0,0,1-1,6.91,6.79,6.79,0,0,1-6.06,4.52c-.86.07-1.71.17-2.57.17H69.3a13.65,13.65,0,0,1-3.76-.46,6.2,6.2,0,0,1-3.72-2.77A13.06,13.06,0,0,1,59.94,126a8.12,8.12,0,0,1,5.66-6.34A12.94,12.94,0,0,1,70,119H91.9Z"></path><path class="cls-3" d="M89.3,140.44h18.46a12.59,12.59,0,0,1,3.34.46,6.78,6.78,0,0,1,4.37,3.59,12.2,12.2,0,0,1,1.16,7.38,13,13,0,0,1-1.31,4.11,6.89,6.89,0,0,1-5.78,3.93,31.84,31.84,0,0,1-3.39.17q-13,0-26.05,0c-2.66,0-5.34,0-8,0a14.93,14.93,0,0,1-3.63-.39,5.35,5.35,0,0,1-3.57-2.89,13.46,13.46,0,0,1-1.35-4.39,26.51,26.51,0,0,1,0-6.23,9.32,9.32,0,0,1,.16-.93,5.63,5.63,0,0,1,4.89-4.61,17.32,17.32,0,0,1,3.24-.25H89.3Z"></path><path class="cls-3" d="M89,117.34l-17.24.11c-.45,0-.9-.05-1.35-.09a5.89,5.89,0,0,1-4.62-3,12.9,12.9,0,0,1-1.74-4.67,11.07,11.07,0,0,1,.24-5,10.49,10.49,0,0,1,7.28-7.34,15,15,0,0,1,4.66-.67h26.61c1.41,0,2.81,0,4.21,0a15.21,15.21,0,0,1,2.69.31,6.34,6.34,0,0,1,4.26,3.1,14.8,14.8,0,0,1,1.54,3.9,11.85,11.85,0,0,1-.41,8.37,7.07,7.07,0,0,1-1.76,2.34,10.91,10.91,0,0,1-6.18,2.55c-.9.09-1.81.11-2.71.11H89Z"></path><path class="cls-3" d="M90.19,182.72H81.56a18.11,18.11,0,0,1-3.31-.34c-4.55-1-7.54-3.73-8.59-8.2a11.26,11.26,0,0,1,1.66-9A7.9,7.9,0,0,1,75.86,162a13.54,13.54,0,0,1,3.92-.51c5,0,9.94,0,14.9,0,2,0,4-.09,6-.09a11.43,11.43,0,0,1,2.69.24,5.77,5.77,0,0,1,4.15,3.58,12.89,12.89,0,0,1,.67,2.34,19.55,19.55,0,0,1-.42,9.39c-.11.39-.27.77-.42,1.14a6.61,6.61,0,0,1-5.62,4.32,30,30,0,0,1-3.65.25c-2.62,0-5.25,0-7.87,0Z"></path><path class="cls-4" d="M177.48,158.56A6.71,6.71,0,0,1,171,165.5H159.37a6.71,6.71,0,0,1-6.44-6.94V118.84a6.71,6.71,0,0,1,6.44-6.95H171a6.71,6.71,0,0,1,6.44,6.95Z"></path></g></g></svg> 