<?xml version="1.0" encoding="UTF-8"?> <svg xmlns="http://www.w3.org/2000/svg" xmlns:xlink="http://www.w3.org/1999/xlink" viewBox="0 0 253.76 253.76"><defs><style>.cls-1{fill:url(#Degradado_sin_nombre_56);}.cls-2,.cls-4{fill:none;}.cls-3{fill:#71c9c9;}.cls-3,.cls-4{fill-rule:evenodd;}</style><linearGradient id="Degradado_sin_nombre_56" y1="126.88" x2="253.76" y2="126.88" gradientTransform="translate(-52.56 126.88) rotate(-45)" gradientUnits="userSpaceOnUse"><stop offset="0" stop-color="#f8f8f8"></stop><stop offset="1" stop-color="#dcdcdc"></stop></linearGradient></defs><title>Recurso 48</title><g id="Capa_2" data-name="Capa 2"><g id="Capa_1-2" data-name="Capa 1"><rect class="cls-1" x="26.88" y="26.88" width="200" height="200" rx="35" ry="35" transform="translate(126.88 -52.56) rotate(45)"></rect><path class="cls-2" d="M177,96.92c.11-.17.2-.32.31-.46l3.33-4.52c.81-1.11,1.63-2.22,2.43-3.34a.84.84,0,0,0,0-1.24c-.43-.56-.87-1.12-1.32-1.67-1.34-1.68-2.7-3.35-4-5a1.11,1.11,0,0,0-1.47-.42c-.68.3-1.39.51-2.07.81-2.13.95-4.25,1.9-6.36,2.88a1.32,1.32,0,0,1-1.56-.08c-2.06-1.67-4.14-3.31-6.21-5a1.3,1.3,0,0,1-.52-1.47c.59-2.87,1.14-5.74,1.7-8.62a6.76,6.76,0,0,0,.11-.95.78.78,0,0,0-.38-.71,2.89,2.89,0,0,0-.46-.26q-3.72-1.79-7.45-3.55a1.08,1.08,0,0,0-1.59.31c-.52.57-1,1.17-1.52,1.76-1.49,1.75-3,3.49-4.46,5.25a1.36,1.36,0,0,1-1.49.51l-.31-.09-4.33-1c-1-.23-2.07-.46-3.1-.67a1.1,1.1,0,0,1-1-.95c0-.21-.11-.41-.16-.62-.7-2.66-1.45-5.31-2.11-8-.4-1.59-.68-1.5-1.95-1.5h-7.31l-.84,0a.86.86,0,0,0-.8.59c-.07.2-.12.41-.18.61-.69,2.55-1.38,5.12-2.06,7.67-.1.38-.19.75-.28,1.13a1.08,1.08,0,0,1-1.09,1,8.57,8.57,0,0,0-1.36.2c-2,.47-4,.92-6,1.46a1.69,1.69,0,0,1-2-.62c-1.8-2.18-3.66-4.31-5.5-6.45-.16-.19-.32-.38-.49-.56a1,1,0,0,0-1.07-.26,3.77,3.77,0,0,0-.48.21l-7.07,3.38c-.23.11-.44.22-.65.35a.8.8,0,0,0-.43.79,6.28,6.28,0,0,0,.09.84c.15.83.32,1.66.48,2.5.42,2.15.83,4.29,1.28,6.43a.93.93,0,0,1-.41,1.09l-.43.32c-2,1.56-4.13,3.07-6.06,4.8a5.32,5.32,0,0,1-.45.3l-1-.4-8.2-3.41c-1-.43-1.11-.42-1.79.43q-2.6,3.22-5.17,6.45a3.41,3.41,0,0,0-.26.33.75.75,0,0,0,0,.8c.11.18.23.36.35.52a87.25,87.25,0,0,0,5.39,7.35c.2.24.36.5.49.67-1.23,2.61-2.41,5.13-3.6,7.66-.07.16-.15.32-.22.48a.92.92,0,0,1-.82.58c-.36,0-.71,0-1.06,0l-8.26.25a4.21,4.21,0,0,0-.52,0,1,1,0,0,0-.93.75c-.08.27-.16.54-.23.82-.56,2.47-1.11,5-1.68,7.43-.22,1-.36,1.1.82,1.71l7.68,4.06c1.1.58,1.19.49,1.17,2,0,1.94,0,3.88,0,5.83,0,.6,0,1.19,0,1.8a1,1,0,0,1-.57.93c-.38.19-.76.39-1.12.59l-7.21,3.81c-1,.51-1,.54-.77,1.55.39,1.8.79,3.58,1.21,5.36.22,1,.49,1.92.72,2.88a.94.94,0,0,0,.84.81c.43.05.84.12,1.26.14,2.8.09,5.58.16,8.37.24h.32a.81.81,0,0,1,.76.49l.27.58,3.07,6.75.39.86c-.13.21-.24.38-.36.55-.63.9-1.27,1.79-1.91,2.68-1.22,1.69-2.44,3.38-3.65,5.08-.45.64-.45.77,0,1.39s.93,1.16,1.4,1.73c1.26,1.57,2.52,3.15,3.78,4.71.72.9.76.92,1.88.49,1.42-.54,2.83-1.09,4.21-1.7s2.69-1.24,4-1.91a1.23,1.23,0,0,1,1.54.17l.4.34c1.77,1.4,3.53,2.82,5.31,4.22,1.1.86,1.14.94.86,2.32-.54,2.74-1.08,5.47-1.59,8.21-.26,1.36,0,1.47,1,2l6.88,3.28.48.22a1,1,0,0,0,1.25-.23c.17-.17.33-.36.5-.55l1.93-2.26c1.24-1.45,2.49-2.9,3.7-4.36a1.24,1.24,0,0,1,1.48-.51,2,2,0,0,0,.31.05l6.8,1.58,1,.25a.71.71,0,0,1,.51.49c.05.16.11.34.15.51.36,1.33.7,2.66,1.06,4,.43,1.61.86,3.21,1.3,4.8.25.89.44,1.06,1.32,1.07h8.37c.73,0,.94-.17,1.17-.84a3.91,3.91,0,0,0,.12-.4l1.28-4.81c.36-1.36.73-2.73,1.08-4.1a1,1,0,0,1,.94-.84,15.35,15.35,0,0,0,3.11-.59c1.51-.36,3-.72,4.52-1.12a1.38,1.38,0,0,1,1.67.52c.64.84,1.37,1.62,2.06,2.42,1.32,1.52,2.63,3,4,4.55.55.63.71.67,1.46.31,2.49-1.17,5-2.38,7.45-3.55,1-.46,1-.89.86-1.68,0-.07,0-.14,0-.21-.57-2.91-1.11-5.82-1.72-8.72a1.21,1.21,0,0,1,.55-1.44,70,70,0,0,0,6.32-5c.18-.15.4-.28.57-.4,1.37.62,2.68,1.23,4,1.79,1.78.76,3.58,1.5,5.37,2.24.64.26.83.2,1.29-.33.28-.31.53-.65.8-1L183,165c.49-.62.49-.76.08-1.42-.55-.86-1.11-1.73-1.72-2.55-1.27-1.73-2.59-3.44-3.89-5.16-.16-.23-.3-.46-.39-.59l3.57-7.57c.09-.19.18-.38.27-.57a1,1,0,0,1,.85-.54h.74c1.62,0,3.25,0,4.87,0,1.2,0,2.4-.16,3.59-.26a7.58,7.58,0,0,0,.84-.15.7.7,0,0,0,.59-.53c.08-.23.12-.47.18-.71.57-2.52,1.15-5,1.72-7.54.25-1.1.22-1.27-.85-1.83-2.34-1.24-4.67-2.49-7-3.74-.31-.16-.61-.33-.94-.47a1.28,1.28,0,0,1-.8-1.36c0-.14,0-.28,0-.42,0-2.16,0-4.31.07-6.47,0-.45-.05-.91-.06-1.37a.58.58,0,0,1,.36-.6c.16-.06.31-.15.47-.23l8.12-4.34c.86-.46.89-.48.68-1.5-.36-1.73-.76-3.45-1.15-5.16-.23-1-.52-2-.73-3a1.12,1.12,0,0,0-1-1,3.15,3.15,0,0,0-.53-.05l-7-.22-2.11-.06a1.06,1.06,0,0,1-1.1-.8,22.55,22.55,0,0,0-1-2.43c-.73-1.53-1.51-3-2.26-4.56C177.3,97.56,177.16,97.24,177,96.92Z"></path><path class="cls-3" d="M177,96.92c.15.32.3.64.45,1,.75,1.52,1.53,3,2.26,4.56a22.55,22.55,0,0,1,1,2.43,1.06,1.06,0,0,0,1.1.8l2.11.06,7,.22a3.15,3.15,0,0,1,.53.05,1.12,1.12,0,0,1,1,1c.22,1,.51,2,.73,3,.39,1.72.79,3.44,1.15,5.16.21,1,.18,1-.68,1.5l-8.12,4.34c-.16.08-.31.16-.47.23a.58.58,0,0,0-.36.6c0,.46.06.92.06,1.37,0,2.15,0,4.31-.07,6.47,0,.13,0,.28,0,.42a1.28,1.28,0,0,0,.8,1.36c.32.14.63.31.94.47,2.34,1.25,4.67,2.5,7,3.74,1.07.56,1.1.73.85,1.83-.56,2.51-1.15,5-1.72,7.54-.06.24-.11.48-.18.71a.7.7,0,0,1-.59.53,7.58,7.58,0,0,1-.84.15c-1.19.09-2.39.23-3.59.26-1.62,0-3.25,0-4.87,0h-.74a1,1,0,0,0-.85.54c-.1.19-.18.38-.27.57L177,155.31c.09.13.23.37.39.59,1.3,1.72,2.61,3.42,3.89,5.16.61.82,1.17,1.68,1.72,2.55.42.65.41.8-.08,1.42l-4.57,5.71c-.26.33-.52.67-.8,1-.46.53-.65.59-1.29.33-1.79-.73-3.59-1.47-5.37-2.24-1.33-.56-2.63-1.17-4-1.79-.17.12-.39.25-.57.4a70,70,0,0,1-6.32,5,1.21,1.21,0,0,0-.55,1.44c.61,2.9,1.16,5.81,1.72,8.72,0,.06,0,.14,0,.21.1.79.13,1.22-.86,1.68-2.49,1.17-5,2.37-7.45,3.55-.74.36-.91.32-1.46-.31-1.33-1.52-2.65-3-4-4.55-.69-.81-1.42-1.58-2.06-2.42a1.38,1.38,0,0,0-1.67-.52c-1.5.39-3,.76-4.52,1.12a15.35,15.35,0,0,1-3.11.59,1,1,0,0,0-.94.84c-.35,1.37-.72,2.74-1.08,4.1l-1.28,4.81a3.91,3.91,0,0,1-.12.4c-.23.67-.44.83-1.17.84h-8.37c-.88,0-1.07-.17-1.32-1.07-.44-1.6-.87-3.2-1.3-4.8-.36-1.33-.7-2.65-1.06-4,0-.17-.1-.34-.15-.51a.71.71,0,0,0-.51-.49l-1-.25-6.8-1.58a2,2,0,0,1-.31-.05,1.24,1.24,0,0,0-1.48.51c-1.21,1.46-2.46,2.91-3.7,4.36l-1.93,2.26c-.17.19-.33.38-.5.55a1,1,0,0,1-1.25.23l-.48-.22-6.88-3.28c-1-.49-1.28-.6-1-2,.51-2.74,1.05-5.47,1.59-8.21.28-1.38.24-1.46-.86-2.32-1.78-1.4-3.54-2.82-5.31-4.22l-.4-.34a1.23,1.23,0,0,0-1.54-.17c-1.32.67-2.66,1.31-4,1.91s-2.8,1.16-4.21,1.7c-1.12.43-1.16.41-1.88-.49-1.27-1.56-2.52-3.13-3.78-4.71-.46-.57-.93-1.15-1.4-1.73s-.5-.75,0-1.39c1.21-1.7,2.43-3.39,3.65-5.08.64-.89,1.27-1.77,1.91-2.68.12-.16.23-.34.36-.55l-.39-.86-3.07-6.75-.27-.58a.81.81,0,0,0-.76-.49h-.32c-2.78-.08-5.57-.14-8.37-.24-.42,0-.83-.09-1.26-.14a.94.94,0,0,1-.84-.81c-.23-1-.5-1.91-.72-2.88-.42-1.78-.82-3.57-1.21-5.36-.22-1-.18-1,.77-1.55l7.21-3.81c.37-.2.74-.4,1.12-.59a1,1,0,0,0,.57-.93c0-.6,0-1.2,0-1.8,0-1.94,0-3.89,0-5.83,0-1.46-.07-1.37-1.17-2l-7.68-4.06c-1.18-.61-1-.75-.82-1.71.58-2.47,1.12-5,1.68-7.43.06-.28.14-.55.23-.82a1,1,0,0,1,.93-.75,4.21,4.21,0,0,1,.52,0l8.26-.25c.35,0,.7,0,1.06,0a.92.92,0,0,0,.82-.58c.07-.16.15-.32.22-.48,1.19-2.53,2.37-5,3.6-7.66-.12-.17-.29-.43-.49-.67a87.25,87.25,0,0,1-5.39-7.35c-.12-.16-.24-.34-.35-.52a.75.75,0,0,1,0-.8,3.41,3.41,0,0,1,.26-.33q2.58-3.23,5.17-6.45c.68-.84.74-.86,1.79-.43l8.2,3.41,1,.4a5.32,5.32,0,0,0,.45-.3c1.93-1.73,4-3.24,6.06-4.8l.43-.32a.93.93,0,0,0,.41-1.09c-.45-2.14-.86-4.29-1.28-6.43-.16-.83-.33-1.66-.48-2.5a6.28,6.28,0,0,1-.09-.84.8.8,0,0,1,.43-.79c.22-.12.43-.24.65-.35l7.07-3.38a3.77,3.77,0,0,1,.48-.21,1,1,0,0,1,1.07.26c.17.18.33.37.49.56,1.84,2.14,3.7,4.27,5.5,6.45a1.69,1.69,0,0,0,2,.62c2-.54,4-1,6-1.46a8.57,8.57,0,0,1,1.36-.2,1.08,1.08,0,0,0,1.09-1c.09-.38.18-.75.28-1.13.68-2.55,1.37-5.12,2.06-7.67.06-.2.11-.41.18-.61a.86.86,0,0,1,.8-.59l.84,0H131c1.26,0,1.55-.09,1.95,1.5.66,2.67,1.4,5.33,2.11,8,.05.2.13.41.16.62a1.1,1.1,0,0,0,1,.95c1,.21,2.07.44,3.1.67l4.33,1,.31.09a1.36,1.36,0,0,0,1.49-.51c1.47-1.76,3-3.51,4.46-5.25.5-.59,1-1.19,1.52-1.76a1.08,1.08,0,0,1,1.59-.31q3.73,1.76,7.45,3.55a2.89,2.89,0,0,1,.46.26.78.78,0,0,1,.38.71,6.76,6.76,0,0,1-.11.95c-.56,2.88-1.1,5.76-1.7,8.62a1.3,1.3,0,0,0,.52,1.47c2.07,1.64,4.15,3.29,6.21,5a1.32,1.32,0,0,0,1.56.08c2.11-1,4.23-1.94,6.36-2.88.68-.31,1.39-.51,2.07-.81a1.11,1.11,0,0,1,1.47.42c1.34,1.69,2.7,3.36,4,5,.44.55.89,1.1,1.32,1.67a.84.84,0,0,1,0,1.24c-.8,1.12-1.62,2.23-2.43,3.34l-3.33,4.52C177.2,96.6,177.11,96.75,177,96.92ZM161,142a1.28,1.28,0,0,1,.1.29,28.91,28.91,0,0,1-.78,5.76,10.25,10.25,0,0,1-7.27,7.7l-.5.18a.57.57,0,0,0-.39.57c0,.1,0,.21,0,.32,0,3.35,0,6.71,0,10.06,0,.13,0,.3.14.36a.59.59,0,0,0,.2,0c.3-.18.61-.36.9-.55a48.72,48.72,0,0,0,20.75-50.94,48.18,48.18,0,0,0-44.4-38,44.64,44.64,0,0,0-13.13,1.17A47,47,0,0,0,90.83,94.81a48.6,48.6,0,0,0,1.92,64.7,46.22,46.22,0,0,0,8.78,7.29,1.75,1.75,0,0,0,1,.47c0-.29,0-.56,0-.83q0-4.61,0-9.22c0-1.23,0-1.14-1.06-1.47a11,11,0,0,1-3.2-1.62,10.56,10.56,0,0,1-3.77-5.5,25.35,25.35,0,0,1-.91-6.27,1.3,1.3,0,0,1,.1-.36c.49.12,1,.23,1.43.36a13.69,13.69,0,0,1,1.39.5,9.63,9.63,0,0,1,1.31.69,9,9,0,0,1,1.12.78,11.43,11.43,0,0,1,1.09,1,12.17,12.17,0,0,1,.92,1.16c.28.42.5.86.76,1.28a5.52,5.52,0,0,0,.79,1.4c0-1.37,0-2.56,0-3.75a.66.66,0,0,0-.45-.65c-.2-.08-.41-.12-.61-.2a11.17,11.17,0,0,1-2.77-1.31,10.49,10.49,0,0,1-4.2-5.81,19.94,19.94,0,0,1-.87-5.95,5.29,5.29,0,0,1,.09-.66c.44.1.82.17,1.19.27a10.48,10.48,0,0,1,6.88,5.68c.12.25.22.52.34.77s.11.28.3.23a18.61,18.61,0,0,0,0-3.77s-.09-.11-.15-.14c-.39-.16-.79-.3-1.18-.45a10.07,10.07,0,0,1-6.1-5.67,12.85,12.85,0,0,1-.72-2.2,31.65,31.65,0,0,1-.68-5c0-.21,0-.41,0-.63a4,4,0,0,1,1.69.35,13.46,13.46,0,0,1,1.58.62,11.51,11.51,0,0,1,1.46.84,9.67,9.67,0,0,1,2.4,2.37c.34.46.6,1,.89,1.43a9.47,9.47,0,0,0,.79,1.53,18.94,18.94,0,0,0,0-4.2l-.88-.28a10.39,10.39,0,0,1-6.87-6.82,19.82,19.82,0,0,1-1-6.25c0-.2,0-.41.06-.61a3,3,0,0,1,.47,0,10.69,10.69,0,0,1,8.13,7.13,17.33,17.33,0,0,1,.87,3.6c0,.19,0,.44.28.49,0-.05.11-.1.12-.15.08-.38.15-.76.24-1.15.22-1,.37-1.94.68-2.88a9.67,9.67,0,0,1,5.35-6.09c.9-.41,1.86-.66,2.79-1a1.69,1.69,0,0,1,.46,0c0,.39,0,.74,0,1.09a25.83,25.83,0,0,1-.62,4.51,13.85,13.85,0,0,1-1.29,3.35,8.85,8.85,0,0,1-4.07,3.88c-.69.33-1.42.62-2.12.94-.25.12-.49.26-.71.37a15,15,0,0,0,.06,3.79c1.93-3.69,2.54-3.89,3.41-4.62A9.71,9.71,0,0,1,113,120a1.1,1.1,0,0,1,.08.19,2.9,2.9,0,0,1,0,.53,28.62,28.62,0,0,1-.89,5.74,11.08,11.08,0,0,1-2.25,4.16,10.34,10.34,0,0,1-4.19,2.79,11.92,11.92,0,0,0-1.52.62,16.7,16.7,0,0,0,.07,3.93c.11-.23.2-.36.26-.52a10.69,10.69,0,0,1,7.75-6.43,4.15,4.15,0,0,1,.74,0,11.7,11.7,0,0,1,0,1.87c0,.38-.08.78-.12,1.16a17,17,0,0,1-1.05,4.41,10,10,0,0,1-6,6c-.33.13-.67.23-1,.35l-.65.28a1.51,1.51,0,0,0-.09.35c0,1.13,0,2.26,0,3.39,0,.06.1.14.17.23,1.37-2.64,2.1-3.62,3.45-4.68a10.33,10.33,0,0,1,5.29-2.16,1.55,1.55,0,0,1,0,.31,32.18,32.18,0,0,1-.73,5.44,10.29,10.29,0,0,1-7.36,7.89,6.85,6.85,0,0,0-.72.3,2.19,2.19,0,0,0-.18,1.3c0,2.86,0,5.72,0,8.58,0,.49,0,1,0,1.49a1.42,1.42,0,0,0,.88,1.49,49.63,49.63,0,0,0,11.26,4.23,53,53,0,0,0,7.94,1.21,9.85,9.85,0,0,0,2,0c.08-.09.11-.12.12-.15a.57.57,0,0,0,0-.2c0-.24,0-.49,0-.74q0-9.43,0-18.87a.22.22,0,0,0,0-.09l-.11-.18-1.05-.51c-.82-.42-1.64-.82-2.44-1.26a7.84,7.84,0,0,1-3.1-3.11,14.86,14.86,0,0,1-.95-2,20,20,0,0,1-1.12-6.76,2.34,2.34,0,0,1,.07-.41,1.93,1.93,0,0,1,.34,0,3.65,3.65,0,0,1,.52.08,10.51,10.51,0,0,1,7.4,6.1,2.91,2.91,0,0,0,.17.38.93.93,0,0,0,.23.19,20.83,20.83,0,0,0,0-4l-1.16-.42a10.22,10.22,0,0,1-6.45-6.28,20,20,0,0,1-1.15-6.75,2.45,2.45,0,0,1,.08-.48,1,1,0,0,1,.26-.06,10,10,0,0,1,6.76,4.16,24.43,24.43,0,0,1,1.33,2.39c.08.15.1.35.39.26,0-.66,0-1.33,0-2a7.16,7.16,0,0,0-.11-2c-.35-.12-.68-.22-1-.34a11.54,11.54,0,0,1-3.17-1.67,10.66,10.66,0,0,1-3.66-5.45,22.22,22.22,0,0,1-.88-6.17,1.43,1.43,0,0,1,.09-.32,3.66,3.66,0,0,1,.43,0,10.3,10.3,0,0,1,7.49,5.5c.18.34.32.71.48,1.06.07.15.11.35.42.33,0-1,0-2,0-3.06a1.11,1.11,0,0,0-.78-1.13l-.89-.33a9.76,9.76,0,0,1-5.68-5.23,14.41,14.41,0,0,1-.63-1.58,21.13,21.13,0,0,1-.89-6.48s.08-.1.15-.2c.52.13,1.08.25,1.61.42a11.2,11.2,0,0,1,1.47.59,12.81,12.81,0,0,1,1.46.84,9.86,9.86,0,0,1,1.31,1.06,11.93,11.93,0,0,1,1.11,1.28c.31.42.57.89.85,1.34a9.62,9.62,0,0,0,.86,1.59c0-1.4.07-2.61,0-3.87-.36-.19-.69-.38-1-.55l-2.17-1.1a9.09,9.09,0,0,1-4.36-5,20.15,20.15,0,0,1-1.25-7.05,2.59,2.59,0,0,1,.11-.51,7.2,7.2,0,0,1,.89.09,10.45,10.45,0,0,1,5.89,3.71,12.29,12.29,0,0,1,2.2,5c.15.72.28,1.46.42,2.19,0,.16,0,.36.34.4a3.39,3.39,0,0,0,.11-.45,21.68,21.68,0,0,1,.85-3.81,10.27,10.27,0,0,1,7.37-7A3.6,3.6,0,0,1,137,95.7a3.06,3.06,0,0,1,.1.62c-.06.91-.11,1.84-.21,2.74a15,15,0,0,1-1.7,5.53,8.48,8.48,0,0,1-3.71,3.66c-.76.39-1.53.73-2.28,1.11-.31.15-.62.32-.94.5v3.42c0,.05.06.1.09.15s.09,0,.1,0c.15-.27.29-.55.44-.83a10.37,10.37,0,0,1,7.09-5.71,1.76,1.76,0,0,1,1.08,0,4.23,4.23,0,0,1,0,.5,29.15,29.15,0,0,1-.52,4.41,14.35,14.35,0,0,1-1.39,3.87,8.42,8.42,0,0,1-3.73,3.64c-.61.3-1.22.56-1.83.85l-1,.46a.8.8,0,0,0-.46.77c0,1,0,2,0,3.07,0,.12,0,.3.16.3.42-.79.8-1.59,1.27-2.33a9.92,9.92,0,0,1,6.19-4.48,2.68,2.68,0,0,1,1.27-.05c0,.55,0,1-.07,1.53s-.09.77-.12,1.15a16.41,16.41,0,0,1-1,4.33,10.25,10.25,0,0,1-6.67,6.47l-1,.34a4.92,4.92,0,0,0-.05.55c0,1.13,0,2.26,0,3.39a.11.11,0,0,0,0,.09s.06,0,.16,0c.15-.33.31-.68.48-1a10.22,10.22,0,0,1,7.49-5.81,3.85,3.85,0,0,1,.64,0,5.07,5.07,0,0,1,0,.89c-.23,1.61-.39,3.23-.72,4.81a10.25,10.25,0,0,1-3,5.49,10.93,10.93,0,0,1-4.28,2.46,1.26,1.26,0,0,0-.8.44,10.08,10.08,0,0,0,.13,3.87,12.79,12.79,0,0,1,2-3.3,10.17,10.17,0,0,1,3.05-2.41,7.58,7.58,0,0,1,3.61-1,3.9,3.9,0,0,1,0,1.35q-.06.9-.18,1.8a16.63,16.63,0,0,1-1.26,4.79,9.88,9.88,0,0,1-5.32,5.2c-.42.17-.86.33-1.29.48-.76.28-.79.32-.82,1.14,0,.1,0,.21,0,.32q0,3.93,0,7.85,0,5.13,0,10.28a1.54,1.54,0,0,0,.19,1.09,45.76,45.76,0,0,0,11-1.53,45,45,0,0,0,11.08-4.49c0-.4,0-.79,0-1.17q0-4.87,0-9.76c0-1.11.1-1.43-1.36-1.84a8.87,8.87,0,0,1-5.63-4.65,17,17,0,0,1-2-7.3,5.49,5.49,0,0,1,0-1.6,2.49,2.49,0,0,1,.32,0,10.58,10.58,0,0,1,8,6.28c.06.12.09.27.16.39s.08.36.37.33c0-1.17,0-2.33,0-3.49a.78.78,0,0,0-.55-.81c-.29-.12-.61-.19-.9-.3a9.65,9.65,0,0,1-6.32-6.36,25.11,25.11,0,0,1-1.1-5.06,6.57,6.57,0,0,1,0-2.17c.51.12,1,.2,1.46.34a12.59,12.59,0,0,1,1.38.53,10.62,10.62,0,0,1,1.32.68,9,9,0,0,1,1.2.86,10.07,10.07,0,0,1,1.07,1,11.49,11.49,0,0,1,.91,1.17c.27.41.5.86.74,1.28a9.86,9.86,0,0,0,.76,1.46c0-1.06,0-1.9,0-2.74,0-1.59.12-1.46-1.42-2a10.11,10.11,0,0,1-6.31-6.14,20.64,20.64,0,0,1-1.19-7.17c0-.06.05-.13.09-.23a1.67,1.67,0,0,1,.39,0,10.67,10.67,0,0,1,7.75,6c.11.22.19.46.31.68s.08.29.32.24v-3.91l-1-.33a10.27,10.27,0,0,1-6.5-6,13.86,13.86,0,0,1-.49-1.39,22.09,22.09,0,0,1-.85-5.74,4.48,4.48,0,0,1,.07-.6,10.38,10.38,0,0,1,3.93,1.32,9.31,9.31,0,0,1,4.28,4.94c.26.7.44,1.42.63,2.13.23.88.41,1.78.62,2.67,0,.18.09.35.37.36,0-.16.06-.32.09-.49a21.28,21.28,0,0,1,.86-3.82,10.58,10.58,0,0,1,3.28-4.85,11.36,11.36,0,0,1,4.95-2.27c.09,0,.2,0,.3.05a1.58,1.58,0,0,1,.09.32,17.94,17.94,0,0,1-1.63,8,9.49,9.49,0,0,1-4.62,4.62c-.54.26-1.1.46-1.66.69l-.93.38c0,1.25,0,2.48,0,3.71a.09.09,0,0,0,0,.08s.07,0,.17,0a12.15,12.15,0,0,1,2-3.33,10.19,10.19,0,0,1,3-2.35A7.64,7.64,0,0,1,161,120a.71.71,0,0,1,.06.19,26.74,26.74,0,0,1-.7,5.56,10.51,10.51,0,0,1-7.06,7.81l-.59.22a.75.75,0,0,0-.55.8c0,1,0,2,0,3.07,0,.11-.07.29.2.34a12,12,0,0,1,3.25-4.72A9.47,9.47,0,0,1,161,131a1.82,1.82,0,0,1,.07,1.18c-.1,1.05-.24,2.1-.37,3.15a12.14,12.14,0,0,1-.69,2.77,10.29,10.29,0,0,1-5.67,6.11c-.45.19-.93.32-1.39.5-.23.08-.45.18-.72.3,0,.36,0,.71,0,1.06,0,.92,0,1.83,0,2.75a.09.09,0,0,0,0,.07.64.64,0,0,0,.15,0A10.89,10.89,0,0,1,161,142Z"></path><path class="cls-4" d="M161,142a10.89,10.89,0,0,0-8.61,6.91.64.64,0,0,1-.15,0,.09.09,0,0,1,0-.07c0-.92,0-1.83,0-2.75,0-.35,0-.7,0-1.06.27-.12.49-.22.72-.3.46-.18.94-.31,1.39-.5A10.29,10.29,0,0,0,160,138.1a12.14,12.14,0,0,0,.69-2.77c.12-1.05.26-2.1.37-3.15A1.82,1.82,0,0,0,161,131a9.47,9.47,0,0,0-5.34,2.31,12,12,0,0,0-3.25,4.72c-.27-.05-.2-.23-.2-.34,0-1,0-2.05,0-3.07a.75.75,0,0,1,.55-.8l.59-.22a10.51,10.51,0,0,0,7.06-7.81,26.74,26.74,0,0,0,.7-5.56A.71.71,0,0,0,161,120a7.64,7.64,0,0,0-3.65,1.1,10.19,10.19,0,0,0-3,2.35,12.15,12.15,0,0,0-2,3.33c-.1,0-.14,0-.17,0a.09.09,0,0,1,0-.08c0-1.23,0-2.46,0-3.71l.93-.38c.55-.23,1.12-.43,1.66-.69a9.49,9.49,0,0,0,4.62-4.62,17.94,17.94,0,0,0,1.63-8,1.58,1.58,0,0,0-.09-.32c-.1,0-.21-.08-.3-.05a11.36,11.36,0,0,0-4.95,2.27,10.58,10.58,0,0,0-3.28,4.85,21.28,21.28,0,0,0-.86,3.82c0,.17-.06.33-.09.49-.28,0-.33-.19-.37-.36-.21-.89-.39-1.79-.62-2.67-.19-.72-.37-1.44-.63-2.13a9.31,9.31,0,0,0-4.28-4.94,10.38,10.38,0,0,0-3.93-1.32,4.48,4.48,0,0,0-.07.6,22.09,22.09,0,0,0,.85,5.74,13.86,13.86,0,0,0,.49,1.39,10.27,10.27,0,0,0,6.5,6l1,.33v3.91c-.24.05-.26-.14-.32-.24s-.19-.45-.31-.68a10.67,10.67,0,0,0-7.75-6,1.67,1.67,0,0,0-.39,0c0,.1-.09.16-.09.23a20.64,20.64,0,0,0,1.19,7.17,10.11,10.11,0,0,0,6.31,6.14c1.54.54,1.42.41,1.42,2,0,.83,0,1.68,0,2.74a9.86,9.86,0,0,1-.76-1.46c-.24-.43-.47-.87-.74-1.28a11.49,11.49,0,0,0-.91-1.17,10.07,10.07,0,0,0-1.07-1,9,9,0,0,0-1.2-.86,10.62,10.62,0,0,0-1.32-.68,12.59,12.59,0,0,0-1.38-.53c-.46-.14-.95-.22-1.46-.34a6.57,6.57,0,0,0,0,2.17,25.11,25.11,0,0,0,1.1,5.06,9.65,9.65,0,0,0,6.32,6.36c.3.1.61.18.9.3a.78.78,0,0,1,.55.81c0,1.16,0,2.33,0,3.49-.29,0-.29-.2-.37-.33s-.1-.27-.16-.39a10.58,10.58,0,0,0-8-6.28,2.49,2.49,0,0,0-.32,0,5.49,5.49,0,0,0,0,1.6,17,17,0,0,0,2,7.3,8.87,8.87,0,0,0,5.63,4.65c1.46.41,1.36.73,1.36,1.84q0,4.88,0,9.76c0,.39,0,.77,0,1.17a45,45,0,0,1-11.08,4.49,45.76,45.76,0,0,1-11,1.53,1.54,1.54,0,0,1-.19-1.09q0-5.14,0-10.28,0-3.93,0-7.85c0-.1,0-.21,0-.32,0-.82.06-.87.82-1.14.43-.15.86-.31,1.29-.48a9.88,9.88,0,0,0,5.32-5.2,16.63,16.63,0,0,0,1.26-4.79q.12-.9.18-1.8a3.9,3.9,0,0,0,0-1.35,7.58,7.58,0,0,0-3.61,1,10.17,10.17,0,0,0-3.05,2.41,12.79,12.79,0,0,0-2,3.3,10.08,10.08,0,0,1-.13-3.87,1.26,1.26,0,0,1,.8-.44,10.93,10.93,0,0,0,4.28-2.46,10.25,10.25,0,0,0,3-5.49c.33-1.58.5-3.21.72-4.81a5.07,5.07,0,0,0,0-.89,3.85,3.85,0,0,0-.64,0,10.22,10.22,0,0,0-7.49,5.81c-.17.34-.33.69-.48,1-.1,0-.13,0-.16,0a.11.11,0,0,1,0-.09c0-1.13,0-2.26,0-3.39a4.92,4.92,0,0,1,.05-.55l1-.34a10.25,10.25,0,0,0,6.67-6.47,16.41,16.41,0,0,0,1-4.33c0-.39.09-.77.12-1.15s0-1,.07-1.53a2.68,2.68,0,0,0-1.27.05,9.92,9.92,0,0,0-6.19,4.48c-.47.74-.85,1.54-1.27,2.33-.19,0-.16-.18-.16-.3,0-1,0-2,0-3.07a.8.8,0,0,1,.46-.77l1-.46c.61-.29,1.22-.55,1.83-.85a8.42,8.42,0,0,0,3.73-3.64,14.35,14.35,0,0,0,1.39-3.87,29.15,29.15,0,0,0,.52-4.41,4.23,4.23,0,0,0,0-.5,1.76,1.76,0,0,0-1.08,0,10.37,10.37,0,0,0-7.09,5.71c-.14.29-.29.57-.44.83,0,0-.06,0-.1,0s-.08-.1-.09-.15v-3.42c.32-.18.63-.35.94-.5.76-.38,1.53-.72,2.28-1.11a8.48,8.48,0,0,0,3.71-3.66,15,15,0,0,0,1.7-5.53c.11-.9.16-1.83.21-2.74a3.06,3.06,0,0,0-.1-.62,3.6,3.6,0,0,0-1.18.16,10.27,10.27,0,0,0-7.37,7,21.68,21.68,0,0,0-.85,3.81,3.39,3.39,0,0,1-.11.45c-.31,0-.31-.24-.34-.4-.14-.73-.26-1.46-.42-2.19a12.29,12.29,0,0,0-2.2-5,10.45,10.45,0,0,0-5.89-3.71,7.2,7.2,0,0,0-.89-.09,2.59,2.59,0,0,0-.11.51,20.15,20.15,0,0,0,1.25,7.05,9.09,9.09,0,0,0,4.36,5l2.17,1.1c.35.17.68.36,1,.55.1,1.26,0,2.47,0,3.87a9.62,9.62,0,0,1-.86-1.59c-.28-.45-.53-.92-.85-1.34a11.93,11.93,0,0,0-1.11-1.28,9.86,9.86,0,0,0-1.31-1.06,12.81,12.81,0,0,0-1.46-.84,11.2,11.2,0,0,0-1.47-.59c-.54-.17-1.09-.29-1.61-.42-.07.1-.15.15-.15.2a21.13,21.13,0,0,0,.89,6.48,14.41,14.41,0,0,0,.63,1.58,9.76,9.76,0,0,0,5.68,5.23l.89.33a1.11,1.11,0,0,1,.78,1.13c0,1,0,2,0,3.06-.31,0-.35-.18-.42-.33-.16-.35-.3-.72-.48-1.06a10.3,10.3,0,0,0-7.49-5.5,3.66,3.66,0,0,0-.43,0,1.43,1.43,0,0,0-.09.32,22.22,22.22,0,0,0,.88,6.17,10.66,10.66,0,0,0,3.66,5.45,11.54,11.54,0,0,0,3.17,1.67c.33.12.66.22,1,.34a7.16,7.16,0,0,1,.11,2c0,.67,0,1.34,0,2-.29.09-.3-.11-.39-.26a24.43,24.43,0,0,0-1.33-2.39,10,10,0,0,0-6.76-4.16,1,1,0,0,0-.26.06,2.45,2.45,0,0,0-.08.48,20,20,0,0,0,1.15,6.75,10.22,10.22,0,0,0,6.45,6.28l1.16.42a20.83,20.83,0,0,1,0,4,.93.93,0,0,1-.23-.19,2.91,2.91,0,0,1-.17-.38,10.51,10.51,0,0,0-7.4-6.1A3.65,3.65,0,0,0,118,140a1.93,1.93,0,0,0-.34,0,2.34,2.34,0,0,0-.07.41,20,20,0,0,0,1.12,6.76,14.86,14.86,0,0,0,.95,2,7.84,7.84,0,0,0,3.1,3.11c.8.44,1.63.84,2.44,1.26l1.05.51.11.18a.22.22,0,0,1,0,.09q0,9.44,0,18.87c0,.25,0,.49,0,.74a.57.57,0,0,1,0,.2s0,.06-.12.15a9.85,9.85,0,0,1-2,0,53,53,0,0,1-7.94-1.21,49.63,49.63,0,0,1-11.26-4.23,1.42,1.42,0,0,1-.88-1.49c0-.5,0-1,0-1.49,0-2.86,0-5.72,0-8.58a2.19,2.19,0,0,1,.18-1.3,6.85,6.85,0,0,1,.72-.3,10.29,10.29,0,0,0,7.36-7.89,32.18,32.18,0,0,0,.73-5.44,1.55,1.55,0,0,0,0-.31,10.33,10.33,0,0,0-5.29,2.16c-1.35,1.05-2.08,2-3.45,4.68-.07-.09-.16-.16-.17-.23,0-1.13,0-2.26,0-3.39a1.51,1.51,0,0,1,.09-.35l.65-.28c.33-.12.67-.22,1-.35a10,10,0,0,0,6-6A17,17,0,0,0,113,134c0-.39.08-.78.12-1.16a11.7,11.7,0,0,0,0-1.87,4.15,4.15,0,0,0-.74,0,10.69,10.69,0,0,0-7.75,6.43c-.06.15-.14.29-.26.52a16.7,16.7,0,0,1-.07-3.93,11.92,11.92,0,0,1,1.52-.62,10.34,10.34,0,0,0,4.19-2.79,11.08,11.08,0,0,0,2.25-4.16,28.62,28.62,0,0,0,.89-5.74,2.9,2.9,0,0,0,0-.53A1.1,1.1,0,0,0,113,120a9.71,9.71,0,0,0-5.25,2.23c-.86.73-1.48.93-3.41,4.62a15,15,0,0,1-.06-3.79c.22-.11.45-.25.71-.37.7-.32,1.43-.61,2.12-.94a8.85,8.85,0,0,0,4.07-3.88,13.85,13.85,0,0,0,1.29-3.35,25.83,25.83,0,0,0,.62-4.51c0-.35,0-.69,0-1.09a1.69,1.69,0,0,0-.46,0c-.93.32-1.89.58-2.79,1a9.67,9.67,0,0,0-5.35,6.09c-.31.94-.46,1.93-.68,2.88-.09.39-.16.77-.24,1.15,0,.06-.08.1-.12.15-.29-.05-.25-.31-.28-.49a17.33,17.33,0,0,0-.87-3.6,10.69,10.69,0,0,0-8.13-7.13,3,3,0,0,0-.47,0c0,.21-.06.41-.06.61a19.82,19.82,0,0,0,1,6.25,10.39,10.39,0,0,0,6.87,6.82l.88.28a18.94,18.94,0,0,1,0,4.2,9.47,9.47,0,0,1-.79-1.53c-.29-.48-.55-1-.89-1.43a9.67,9.67,0,0,0-2.4-2.37,11.51,11.51,0,0,0-1.46-.84,13.46,13.46,0,0,0-1.58-.62,4,4,0,0,0-1.69-.35c0,.22,0,.42,0,.63a31.65,31.65,0,0,0,.68,5,12.85,12.85,0,0,0,.72,2.2,10.07,10.07,0,0,0,6.1,5.67c.39.15.79.29,1.18.45.06,0,.1.09.15.14a18.61,18.61,0,0,1,0,3.77c-.19,0-.24-.11-.3-.23s-.22-.52-.34-.77A10.48,10.48,0,0,0,95,131.16c-.36-.1-.74-.17-1.19-.27a5.29,5.29,0,0,0-.09.66,19.94,19.94,0,0,0,.87,5.95,10.49,10.49,0,0,0,4.2,5.81,11.17,11.17,0,0,0,2.77,1.31c.19.07.41.12.61.2a.66.66,0,0,1,.45.65c0,1.19,0,2.38,0,3.75a5.52,5.52,0,0,1-.79-1.4c-.26-.43-.48-.87-.76-1.28a12.17,12.17,0,0,0-.92-1.16,11.43,11.43,0,0,0-1.09-1,9,9,0,0,0-1.12-.78,9.63,9.63,0,0,0-1.31-.69,13.69,13.69,0,0,0-1.39-.5c-.47-.14-.95-.24-1.43-.36a1.3,1.3,0,0,0-.1.36,25.35,25.35,0,0,0,.91,6.27,10.56,10.56,0,0,0,3.77,5.5,11,11,0,0,0,3.2,1.62c1,.33,1.07.24,1.06,1.47q0,4.61,0,9.22c0,.27,0,.54,0,.83a1.75,1.75,0,0,1-1-.47,46.22,46.22,0,0,1-8.78-7.29,48.18,48.18,0,0,1-12.17-22.9,48.67,48.67,0,0,1,10.25-41.8,47,47,0,0,1,25.78-15.86,44.64,44.64,0,0,1,13.13-1.17,48.18,48.18,0,0,1,44.4,38,48.54,48.54,0,0,1-20.75,50.94c-.29.19-.59.37-.9.55a.59.59,0,0,1-.2,0c-.18-.06-.14-.23-.14-.36,0-3.35,0-6.71,0-10.06,0-.11,0-.22,0-.32a.57.57,0,0,1,.39-.57l.5-.18a10.25,10.25,0,0,0,7.27-7.7,28.91,28.91,0,0,0,.78-5.76A1.28,1.28,0,0,0,161,142ZM103.3,97.67a15.34,15.34,0,0,0-3.15,9.75c.1,2.61,1.42,6.65,3.27,8.48,1.56-1.49,3-5.22,3.14-8.22A15,15,0,0,0,103.3,97.67Zm23.95-13.26c-4.32,5.47-4.08,13.42.16,18.26C129,101,130.48,97,130.5,93.9A14.94,14.94,0,0,0,127.25,84.41Zm23.85,13.16c-.08.14-.14.27-.22.39a15.55,15.55,0,0,0-2.69,6.93A14.69,14.69,0,0,0,151,115.56a2.34,2.34,0,0,0,.43.41A14.93,14.93,0,0,0,151.09,97.57Z"></path><path class="cls-3" d="M103.3,97.67a15,15,0,0,1,3.25,10c-.14,3-1.58,6.73-3.14,8.22-1.85-1.83-3.17-5.87-3.27-8.48A15.34,15.34,0,0,1,103.3,97.67Z"></path><path class="cls-3" d="M127.25,84.41a14.94,14.94,0,0,1,3.26,9.49c0,3.09-1.46,7.11-3.09,8.78C123.17,97.83,122.92,89.88,127.25,84.41Z"></path><path class="cls-3" d="M151.09,97.57A14.93,14.93,0,0,1,151.4,116a2.34,2.34,0,0,1-.43-.41,14.69,14.69,0,0,1-2.78-10.68A15.55,15.55,0,0,1,150.88,98C150.95,97.84,151,97.71,151.09,97.57Z"></path></g></g></svg> 