<svg xmlns="http://www.w3.org/2000/svg" viewBox="0 0 1920 161"><defs><style>.cls-1{fill:#6f6f6f;}.cls-2{fill:#5e5e5e;fill-rule:evenodd;}</style></defs><title>Recurso 1</title><g id="Capa_2" data-name="Capa 2"><g id="Capa_1-2" data-name="Capa 1"><g id="Capa_1-2-2" data-name="Capa 1-2"><polygon class="cls-1" points="0 0 0 53 1920 161 1920 0 0 0"/><path class="cls-2" d="M1192.55,102.15c-.26,7.46,1.95,11.53,8.18,14.33C1201.07,109.88,1198.52,106,1192.55,102.15Z"/><path class="cls-2" d="M1483.63,117.15c-.65-7.4-2.42-11.78-8.37-14.24C1474.29,109.41,1477,113.22,1483.63,117.15Z"/><path class="cls-2" d="M1765.92,115.76c-.35-5.94-2.32-10.19-7.73-12.81C1757.7,111.19,1758.33,112.26,1765.92,115.76Z"/><path class="cls-2" d="M1059.25,34c.75-6.18-2.1-9.89-6.9-13C1051.24,28.75,1051.78,29.78,1059.25,34Z"/><path class="cls-2" d="M1333.77,20.22c-.49,7.4,2,11.31,7.65,14.5C1342.7,27.82,1339.49,24.31,1333.77,20.22Z"/><path class="cls-2" d="M1624.73,35.43c-.46-7.71-2.72-11.72-8.49-14.9C1615.66,27.54,1618.23,31.4,1624.73,35.43Z"/><path class="cls-2" d="M1907,33.91c0-6-2.33-10.1-7.57-12.84C1898.87,29.25,1899.49,30.35,1907,33.91Z"/><path class="cls-2" d="M1392.42,112.65c.38,6.63,2.44,10.66,7.23,13.37C1401.14,118.85,1400.7,118,1392.42,112.65Z"/><path class="cls-2" d="M1616.1,137.85c6-3.74,8.75-7.53,8.07-14.2C1618.18,126.43,1616,130.48,1616.1,137.85Z"/><path class="cls-2" d="M1683.48,137.14c.18-6.67-2.32-10.4-7-13.27C1675.1,131.23,1675.66,132.3,1683.48,137.14Z"/><path class="cls-2" d="M1907.17,123c-6.46,3.7-8.95,7.59-8.55,14.24C1904.8,134.75,1906.63,130.48,1907.17,123Z"/><path class="cls-2" d="M1683.3,20.67c-6.19,3.55-8.23,7.5-8.2,13.72C1681.6,31.95,1683.46,27.79,1683.3,20.67Z"/><path class="cls-2" d="M1392.75,34.47c6.32-2.62,8.4-6.66,8-13.13C1394.56,23.8,1392.6,27.91,1392.75,34.47Z"/><path class="cls-2" d="M1110.3,34.47c6.31-2.61,8.38-6.66,8-13.13C1112.12,23.8,1110.15,27.91,1110.3,34.47Z"/><path class="cls-2" d="M828,31.16c.63-4.65,2.78-7.83,7.91-9.82.26,6.38-1.67,10.45-7.91,13Z"/><path class="cls-2" d="M1824.49,55.73c.27-6.9-1.56-11.09-7.53-13.33C1817.28,50.12,1817.28,50.12,1824.49,55.73Z"/><path class="cls-2" d="M1758.34,55.19c5.21-2.43,7-6.55,7.46-12C1758.64,45.41,1757.64,47,1758.34,55.19Z"/><path class="cls-2" d="M1534.87,42.95c-.75,5.64,1.15,9.7,6.73,12.52C1543.15,48.69,1539.7,45.43,1534.87,42.95Z"/><path class="cls-2" d="M1482.38,43c-5.43,2.44-8.25,6-7,12.2C1481.48,52.86,1482.8,48.33,1482.38,43Z"/><path class="cls-2" d="M1259.19,55.49c1.26-6.74-1.62-10.33-7.19-13.74C1250.93,48.78,1253.74,52.41,1259.19,55.49Z"/><path class="cls-2" d="M1192.26,55.94c7.51-5.75,7.51-5.75,7.9-13.52C1194.07,44.55,1192.56,48.92,1192.26,55.94Z"/><path class="cls-2" d="M969.07,41.33c1.27,9.48,1.27,9.48,7.72,13.71C978.06,48.74,975.06,45.23,969.07,41.33Z"/><path class="cls-2" d="M918.26,41.46c-6.25,3.6-8.65,7.44-8.11,13.74C916.88,50.91,916.88,50.91,918.26,41.46Z"/><path class="cls-2" d="M1824.4,102.7c-5.65,2.59-7.43,6.61-8.31,11.41C1822,114.72,1823.5,112.86,1824.4,102.7Z"/><path class="cls-2" d="M1542.14,102.13c-7.58,6.42-7.58,6.42-7.35,13.83C1540.54,113.38,1542.38,109.16,1542.14,102.13Z"/><path class="cls-2" d="M1251.49,116.63c6.25-3.49,8.91-7.2,7.82-13.42C1252.92,107.29,1252.92,107.29,1251.49,116.63Z"/><path class="cls-2" d="M1880.82,79.08c-5.39-3.61-9.82-3.58-14.58-.62C1871.83,82.85,1872.39,82.88,1880.82,79.08Z"/><path class="cls-2" d="M1716.88,79.34c-8.13-3.69-8.13-3.69-15.2-.28C1706.44,83.13,1711,82.39,1716.88,79.34Z"/><path class="cls-2" d="M1598.09,79.07c-5.15-3.65-9.76-3.71-15,.16C1588.42,82.64,1593,83,1598.09,79.07Z"/><path class="cls-2" d="M1418.46,79.3c6,3.33,10.47,3.48,15.5,0C1428.81,75.27,1424.25,75.55,1418.46,79.3Z"/><path class="cls-2" d="M1300.63,79c5.19,3.84,9.75,3.79,15.05.28C1310.52,75.22,1306,75.59,1300.63,79Z"/><path class="cls-2" d="M1152.15,79.16c-6.06-3.59-10.5-3.77-15.54-.21C1141.61,83.12,1146.14,82.43,1152.15,79.16Z"/><path class="cls-2" d="M1017.7,79.21c6.06,3.54,10.49,3.12,15.91.38C1028.1,75.2,1023.56,75.65,1017.7,79.21Z"/><path class="cls-2" d="M854,79.2c5.24,3.66,9.82,3.58,15.05-.13C863.8,75.5,859.22,75.3,854,79.2Z"/><path class="cls-2" d="M202.12,23.1c-.49,7.4,2,11.31,7.65,14.5C211,30.69,207.84,27.18,202.12,23.1Z"/><path class="cls-2" d="M493.08,38.3c-.46-7.71-2.72-11.72-8.49-14.9C484,30.41,486.57,34.27,493.08,38.3Z"/><path class="cls-2" d="M775.31,36.78c0-6-2.33-10.1-7.57-12.84C767.21,32.12,767.84,33.22,775.31,36.78Z"/><path class="cls-2" d="M551.65,23.54c-6.19,3.55-8.23,7.5-8.2,13.72C549.95,34.82,551.8,30.67,551.65,23.54Z"/><path class="cls-2" d="M261.1,37.35c6.32-2.62,8.4-6.66,8-13.13C262.91,26.67,261,30.78,261.1,37.35Z"/><path class="cls-2" d="M692.84,58.6c.27-6.9-1.56-11.09-7.53-13.33C685.63,53,685.63,53,692.84,58.6Z"/><path class="cls-2" d="M626.69,58.07c5.21-2.43,7-6.55,7.46-12C627,48.28,626,49.9,626.69,58.07Z"/><path class="cls-2" d="M403.22,45.82c-.75,5.64,1.15,9.7,6.73,12.52C411.5,51.57,408,48.3,403.22,45.82Z"/><path class="cls-2" d="M350.73,45.88c-5.43,2.44-8.25,6-7,12.2C349.82,55.74,351.15,51.21,350.73,45.88Z"/><path class="cls-2" d="M127.53,55.36c1.26-6.74-1.62-10.33-7.19-13.74C119.28,48.66,122.09,52.29,127.53,55.36Z"/><path class="cls-2" d="M60.61,55.81c7.51-5.75,7.51-5.75,7.9-13.52C62.42,44.42,60.91,48.8,60.61,55.81Z"/><path class="cls-2" d="M749.16,81.95c-5.39-3.61-9.82-3.58-14.58-.62C740.18,85.72,740.73,85.75,749.16,81.95Z"/><path class="cls-2" d="M585.23,80.21c-8.13-3.69-8.13-3.69-15.2-.28C574.78,84,579.3,83.27,585.23,80.21Z"/></g></g></g></svg>