<svg xmlns="http://www.w3.org/2000/svg" viewBox="0 0 1920 161"><defs><style>.cls-1{fill:#e63323;}.cls-2{fill:#cb2b19;fill-rule:evenodd;}</style></defs><title>Recurso 2</title><g id="Capa_2" data-name="Capa 2"><g id="Capa_1-2" data-name="Capa 1"><g id="Capa_1-2-2" data-name="Capa 1-2"><polygon class="cls-1" points="1920 161 1920 0 0 108 0 161 1920 161"/><path class="cls-2" d="M1192.55,58.85c-.26-7.46,1.95-11.53,8.18-14.33C1201.07,51.12,1198.52,55,1192.55,58.85Z"/><path class="cls-2" d="M1483.63,43.85c-.65,7.4-2.42,11.78-8.37,14.24C1474.29,51.59,1477,47.78,1483.63,43.85Z"/><path class="cls-2" d="M1765.92,45.24c-.35,5.94-2.32,10.19-7.73,12.81C1757.7,49.81,1758.33,48.74,1765.92,45.24Z"/><path class="cls-2" d="M1059.25,127c.75,6.18-2.1,9.89-6.9,13C1051.24,132.25,1051.78,131.22,1059.25,127Z"/><path class="cls-2" d="M1333.77,140.78c-.49-7.4,2-11.31,7.65-14.5C1342.7,133.18,1339.49,136.69,1333.77,140.78Z"/><path class="cls-2" d="M1624.73,125.57c-.46,7.71-2.72,11.72-8.49,14.9C1615.66,133.46,1618.23,129.6,1624.73,125.57Z"/><path class="cls-2" d="M1907,127.09c0,6-2.33,10.1-7.57,12.84C1898.87,131.75,1899.49,130.65,1907,127.09Z"/><path class="cls-2" d="M1392.42,48.35c.38-6.63,2.44-10.66,7.23-13.37C1401.14,42.15,1400.7,43,1392.42,48.35Z"/><path class="cls-2" d="M1616.1,23.15c6,3.74,8.75,7.53,8.07,14.2C1618.18,34.57,1616,30.52,1616.1,23.15Z"/><path class="cls-2" d="M1683.48,23.86c.18,6.67-2.32,10.4-7,13.27C1675.1,29.77,1675.66,28.7,1683.48,23.86Z"/><path class="cls-2" d="M1907.17,38c-6.46-3.7-8.95-7.59-8.55-14.24C1904.8,26.25,1906.63,30.52,1907.17,38Z"/><path class="cls-2" d="M1683.3,140.33c-6.19-3.55-8.23-7.5-8.2-13.72C1681.6,129.05,1683.46,133.21,1683.3,140.33Z"/><path class="cls-2" d="M1392.75,126.53c6.32,2.62,8.4,6.66,8,13.13C1394.56,137.2,1392.6,133.09,1392.75,126.53Z"/><path class="cls-2" d="M1110.3,126.53c6.31,2.61,8.38,6.66,8,13.13C1112.12,137.2,1110.15,133.09,1110.3,126.53Z"/><path class="cls-2" d="M828,129.84c.63,4.65,2.78,7.83,7.91,9.82.26-6.38-1.67-10.45-7.91-13Z"/><path class="cls-2" d="M1824.49,105.27c.27,6.9-1.56,11.09-7.53,13.33C1817.28,110.88,1817.28,110.88,1824.49,105.27Z"/><path class="cls-2" d="M1758.34,105.81c5.21,2.43,7,6.55,7.46,12C1758.64,115.59,1757.64,114,1758.34,105.81Z"/><path class="cls-2" d="M1534.87,118.05c-.75-5.64,1.15-9.7,6.73-12.52C1543.15,112.31,1539.7,115.57,1534.87,118.05Z"/><path class="cls-2" d="M1482.38,118c-5.43-2.44-8.25-6-7-12.2C1481.48,108.14,1482.8,112.67,1482.38,118Z"/><path class="cls-2" d="M1259.19,105.51c1.26,6.74-1.62,10.33-7.19,13.74C1250.93,112.22,1253.74,108.59,1259.19,105.51Z"/><path class="cls-2" d="M1192.26,105.06c7.51,5.75,7.51,5.75,7.9,13.52C1194.07,116.45,1192.56,112.08,1192.26,105.06Z"/><path class="cls-2" d="M969.07,119.67c1.27-9.48,1.27-9.48,7.72-13.71C978.06,112.26,975.06,115.77,969.07,119.67Z"/><path class="cls-2" d="M918.26,119.54c-6.25-3.6-8.65-7.44-8.11-13.74C916.88,110.09,916.88,110.09,918.26,119.54Z"/><path class="cls-2" d="M1824.4,58.3c-5.65-2.59-7.43-6.61-8.31-11.41C1822,46.28,1823.5,48.14,1824.4,58.3Z"/><path class="cls-2" d="M1542.14,58.87c-7.58-6.42-7.58-6.42-7.35-13.83C1540.54,47.62,1542.38,51.84,1542.14,58.87Z"/><path class="cls-2" d="M1251.49,44.37c6.25,3.49,8.91,7.2,7.82,13.42C1252.92,53.71,1252.92,53.71,1251.49,44.37Z"/><path class="cls-2" d="M1880.82,81.92c-5.39,3.61-9.82,3.58-14.58.62C1871.83,78.15,1872.39,78.12,1880.82,81.92Z"/><path class="cls-2" d="M1716.88,81.66c-8.13,3.69-8.13,3.69-15.2.28C1706.44,77.87,1711,78.61,1716.88,81.66Z"/><path class="cls-2" d="M1598.09,81.93c-5.15,3.65-9.76,3.71-15-.16C1588.42,78.36,1593,78,1598.09,81.93Z"/><path class="cls-2" d="M1418.46,81.7c6-3.33,10.47-3.48,15.5,0C1428.81,85.73,1424.25,85.45,1418.46,81.7Z"/><path class="cls-2" d="M1300.63,82c5.19-3.84,9.75-3.79,15.05-.28C1310.52,85.78,1306,85.41,1300.63,82Z"/><path class="cls-2" d="M1152.15,81.84c-6.06,3.59-10.5,3.77-15.54.21C1141.61,77.88,1146.14,78.57,1152.15,81.84Z"/><path class="cls-2" d="M1017.7,81.79c6.06-3.54,10.49-3.12,15.91-.38C1028.1,85.8,1023.56,85.35,1017.7,81.79Z"/><path class="cls-2" d="M854,81.8c5.24-3.66,9.82-3.58,15.05.13C863.8,85.5,859.22,85.7,854,81.8Z"/><path class="cls-2" d="M202.12,137.9c-.49-7.4,2-11.31,7.65-14.5C211,130.31,207.84,133.82,202.12,137.9Z"/><path class="cls-2" d="M493.08,122.7c-.46,7.71-2.72,11.72-8.49,14.9C484,130.59,486.57,126.73,493.08,122.7Z"/><path class="cls-2" d="M775.31,124.22c0,6-2.33,10.1-7.57,12.84C767.21,128.88,767.84,127.78,775.31,124.22Z"/><path class="cls-2" d="M551.65,137.46c-6.19-3.55-8.23-7.5-8.2-13.72C549.95,126.18,551.8,130.33,551.65,137.46Z"/><path class="cls-2" d="M261.1,123.65c6.32,2.62,8.4,6.66,8,13.13C262.91,134.33,261,130.22,261.1,123.65Z"/><path class="cls-2" d="M692.84,102.4c.27,6.9-1.56,11.09-7.53,13.33C685.63,108,685.63,108,692.84,102.4Z"/><path class="cls-2" d="M626.69,102.93c5.21,2.43,7,6.55,7.46,12C627,112.72,626,111.1,626.69,102.93Z"/><path class="cls-2" d="M403.22,115.18c-.75-5.64,1.15-9.7,6.73-12.52C411.5,109.43,408,112.7,403.22,115.18Z"/><path class="cls-2" d="M350.73,115.12c-5.43-2.44-8.25-6-7-12.2C349.82,105.26,351.15,109.79,350.73,115.12Z"/><path class="cls-2" d="M127.53,105.64c1.26,6.74-1.62,10.33-7.19,13.74C119.28,112.34,122.09,108.71,127.53,105.64Z"/><path class="cls-2" d="M60.61,105.19c7.51,5.75,7.51,5.75,7.9,13.52C62.42,116.58,60.91,112.2,60.61,105.19Z"/><path class="cls-2" d="M749.16,79.05c-5.39,3.61-9.82,3.58-14.58.62C740.18,75.28,740.73,75.25,749.16,79.05Z"/><path class="cls-2" d="M585.23,80.79c-8.13,3.69-8.13,3.69-15.2.28C574.78,77,579.3,77.73,585.23,80.79Z"/></g></g></g></svg>