<?xml version="1.0" encoding="UTF-8"?> <svg xmlns="http://www.w3.org/2000/svg" viewBox="0 0 313.33 76.62"><defs><style>.cls-1{fill:#e63323;}</style></defs><title>Recurso 2</title><g id="Capa_2" data-name="Capa 2"><g id="Layer_1" data-name="Layer 1"><path class="cls-1" d="M311.47,31.61a1.86,1.86,0,0,0-1.86,1.86h3.72A1.86,1.86,0,0,0,311.47,31.61Z"></path><path class="cls-1" d="M292.25,22.93a1.86,1.86,0,0,0-1.86-1.86v3.72A1.86,1.86,0,0,0,292.25,22.93Z"></path><circle class="cls-1" cx="311.47" cy="12.4" r="1.86"></circle><path class="cls-1" d="M292.25,1.86A1.86,1.86,0,0,0,290.39,0V3.72A1.86,1.86,0,0,0,292.25,1.86Z"></path><path class="cls-1" d="M292.25,44a1.86,1.86,0,0,0-1.86-1.86v3.72A1.86,1.86,0,0,0,292.25,44Z"></path><path class="cls-1" d="M309.61,33.47a1.86,1.86,0,0,0,3.72,0h-3.72Z"></path><path class="cls-1" d="M290.39,21.08a1.86,1.86,0,1,0,0,3.72h0V21.08Z"></path><path class="cls-1" d="M269.32,31.61a1.86,1.86,0,0,0-1.86,1.86h3.72A1.86,1.86,0,0,0,269.32,31.61Z"></path><path class="cls-1" d="M250.1,22.93a1.86,1.86,0,0,0-1.86-1.86v3.72A1.86,1.86,0,0,0,250.1,22.93Z"></path><path class="cls-1" d="M290.39,0a1.86,1.86,0,1,0,0,3.72h0V0Z"></path><circle class="cls-1" cx="269.32" cy="12.4" r="1.86"></circle><path class="cls-1" d="M250.1,1.86A1.86,1.86,0,0,0,248.24,0V3.72A1.86,1.86,0,0,0,250.1,1.86Z"></path><path class="cls-1" d="M288.53,44a1.86,1.86,0,0,0,1.86,1.86h0V42.15h0A1.86,1.86,0,0,0,288.53,44Z"></path><path class="cls-1" d="M250.1,44a1.86,1.86,0,0,0-1.86-1.86v3.72A1.86,1.86,0,0,0,250.1,44Z"></path><path class="cls-1" d="M267.46,33.47a1.86,1.86,0,1,0,3.72,0h-3.72Z"></path><path class="cls-1" d="M248.24,21.08a1.86,1.86,0,1,0,0,3.72h0V21.08Z"></path><path class="cls-1" d="M227.16,31.61a1.86,1.86,0,0,0-1.86,1.86H229A1.86,1.86,0,0,0,227.16,31.61Z"></path><path class="cls-1" d="M207.95,22.93a1.86,1.86,0,0,0-1.86-1.86v3.72A1.86,1.86,0,0,0,207.95,22.93Z"></path><path class="cls-1" d="M248.24,0a1.86,1.86,0,1,0,0,3.72h0V0Z"></path><circle class="cls-1" cx="227.16" cy="12.4" r="1.86"></circle><path class="cls-1" d="M207.95,1.86A1.86,1.86,0,0,0,206.09,0V3.72A1.86,1.86,0,0,0,207.95,1.86Z"></path><path class="cls-1" d="M246.38,44a1.86,1.86,0,0,0,1.86,1.86h0V42.15h0A1.86,1.86,0,0,0,246.38,44Z"></path><path class="cls-1" d="M207.95,44a1.86,1.86,0,0,0-1.86-1.86v3.72A1.86,1.86,0,0,0,207.95,44Z"></path><path class="cls-1" d="M225.31,33.47a1.86,1.86,0,1,0,3.72,0h-3.72Z"></path><path class="cls-1" d="M206.09,21.08a1.86,1.86,0,1,0,0,3.72h0V21.08Z"></path><path class="cls-1" d="M185,31.61a1.86,1.86,0,0,0-1.86,1.86h3.72A1.86,1.86,0,0,0,185,31.61Z"></path><path class="cls-1" d="M165.8,22.93a1.86,1.86,0,0,0-1.86-1.86v3.72A1.86,1.86,0,0,0,165.8,22.93Z"></path><path class="cls-1" d="M206.09,0a1.86,1.86,0,1,0,0,3.72h0V0Z"></path><circle class="cls-1" cx="185.01" cy="12.4" r="1.86"></circle><path class="cls-1" d="M165.8,1.86A1.86,1.86,0,0,0,163.94,0V3.72A1.86,1.86,0,0,0,165.8,1.86Z"></path><path class="cls-1" d="M204.23,44a1.86,1.86,0,0,0,1.86,1.86h0V42.15h0A1.86,1.86,0,0,0,204.23,44Z"></path><path class="cls-1" d="M165.8,44a1.86,1.86,0,0,0-1.86-1.86v3.72A1.86,1.86,0,0,0,165.8,44Z"></path><path class="cls-1" d="M183.15,33.47a1.86,1.86,0,1,0,3.72,0h-3.72Z"></path><path class="cls-1" d="M163.94,21.08a1.86,1.86,0,1,0,0,3.72h0V21.08Z"></path><path class="cls-1" d="M142.86,31.61A1.86,1.86,0,0,0,141,33.47h3.72A1.86,1.86,0,0,0,142.86,31.61Z"></path><path class="cls-1" d="M123.64,22.93a1.86,1.86,0,0,0-1.86-1.86v3.72A1.86,1.86,0,0,0,123.64,22.93Z"></path><path class="cls-1" d="M163.94,0a1.86,1.86,0,1,0,0,3.72h0V0Z"></path><circle class="cls-1" cx="142.86" cy="12.4" r="1.86"></circle><path class="cls-1" d="M123.64,1.86A1.86,1.86,0,0,0,121.79,0V3.72A1.86,1.86,0,0,0,123.64,1.86Z"></path><path class="cls-1" d="M162.08,44a1.86,1.86,0,0,0,1.86,1.86h0V42.15h0A1.86,1.86,0,0,0,162.08,44Z"></path><path class="cls-1" d="M123.64,44a1.86,1.86,0,0,0-1.86-1.86v3.72A1.86,1.86,0,0,0,123.64,44Z"></path><path class="cls-1" d="M141,33.47a1.86,1.86,0,1,0,3.72,0H141Z"></path><path class="cls-1" d="M121.79,21.08a1.86,1.86,0,1,0,0,3.72h0V21.08Z"></path><path class="cls-1" d="M100.71,31.61a1.86,1.86,0,0,0-1.86,1.86h3.72A1.86,1.86,0,0,0,100.71,31.61Z"></path><path class="cls-1" d="M81.49,22.93a1.86,1.86,0,0,0-1.86-1.86v3.72A1.86,1.86,0,0,0,81.49,22.93Z"></path><path class="cls-1" d="M121.79,0a1.86,1.86,0,1,0,0,3.72h0V0Z"></path><circle class="cls-1" cx="100.71" cy="12.4" r="1.86"></circle><path class="cls-1" d="M81.49,1.86A1.86,1.86,0,0,0,79.63,0V3.72A1.86,1.86,0,0,0,81.49,1.86Z"></path><path class="cls-1" d="M119.93,44a1.86,1.86,0,0,0,1.86,1.86h0V42.15h0A1.86,1.86,0,0,0,119.93,44Z"></path><path class="cls-1" d="M81.49,44a1.86,1.86,0,0,0-1.86-1.86v3.72A1.86,1.86,0,0,0,81.49,44Z"></path><path class="cls-1" d="M98.85,33.47a1.86,1.86,0,0,0,3.72,0H98.85Z"></path><path class="cls-1" d="M79.63,21.08a1.86,1.86,0,1,0,0,3.72h0V21.08Z"></path><path class="cls-1" d="M58.56,31.61a1.86,1.86,0,0,0-1.86,1.86h3.72A1.86,1.86,0,0,0,58.56,31.61Z"></path><path class="cls-1" d="M79.63,0a1.86,1.86,0,1,0,0,3.72h0V0Z"></path><circle class="cls-1" cx="58.56" cy="12.4" r="1.86"></circle><path class="cls-1" d="M77.77,44a1.86,1.86,0,0,0,1.86,1.86h0V42.15h0A1.86,1.86,0,0,0,77.77,44Z"></path><path class="cls-1" d="M56.7,33.47a1.86,1.86,0,0,0,3.72,0H56.7Z"></path><path class="cls-1" d="M259.21,75.11a5.14,5.14,0,0,1-3.64,1.51H5.15a5.15,5.15,0,0,1,0-10.31H255.57a5.15,5.15,0,0,1,3.64,8.8Z"></path></g></g></svg> 