<?xml version="1.0" encoding="UTF-8"?> <svg xmlns="http://www.w3.org/2000/svg" xmlns:xlink="http://www.w3.org/1999/xlink" viewBox="0 0 253.76 253.76"><defs><style>.cls-1{fill:url(#Degradado_sin_nombre_56);}.cls-2{fill:#581e9b;}</style><linearGradient id="Degradado_sin_nombre_56" y1="126.88" x2="253.76" y2="126.88" gradientTransform="translate(-52.56 126.88) rotate(-45)" gradientUnits="userSpaceOnUse"><stop offset="0" stop-color="#f8f8f8"></stop><stop offset="1" stop-color="#dcdcdc"></stop></linearGradient></defs><title>Recurso 16</title><g id="Capa_2" data-name="Capa 2"><g id="Capa_1-2" data-name="Capa 1"><rect class="cls-1" x="26.88" y="26.88" width="200" height="200" rx="35" ry="35" transform="translate(126.88 -52.56) rotate(45)"></rect><path class="cls-2" d="M109.36,110.43c-.41,0-1.76,1.18-1.76,1.18C108.33,111.93,109.78,110.41,109.36,110.43Zm.18-.24-.11.07.1,0Zm49.72-51.66A13.49,13.49,0,1,1,145.78,72,13.49,13.49,0,0,1,159.26,58.54Zm-81,57.82h3.61v-1.74H78.31a2.62,2.62,0,0,1-2-.53.77.77,0,0,1-.11-.6l0-10.49H74.55v10.12a2.48,2.48,0,0,0,.4,2A3.94,3.94,0,0,0,78.31,116.36ZM192.53,141l-.49-4c-1.94-15.53-2-16.12-1.27-43.49a1.74,1.74,0,0,0-3.48-.1c-.75,27.63-.67,28.24,1.29,44l.49,4c.5,3.82.06,6.46-1.24,7.48-1.51,1.17-4.16.13-4.34.06-12.77-3.93-28.69,4.19-29.36,4.53a1.73,1.73,0,0,0,.8,3.27,1.66,1.66,0,0,0,.8-.2A56.57,56.57,0,0,1,171,151.7v27h-7.22a2.66,2.66,0,1,0,0,5.32h20.5a2.66,2.66,0,1,0,0-5.32h-6.65V151.4a20.81,20.81,0,0,1,4.69.82c.19.07,4.49,1.84,7.62-.56C192.35,149.83,193.22,146.23,192.53,141Zm-8.26-7.88c-.3-11.42-4-22.38-4.34-33.75-.43-16.57-25.82-16.94-26-.78a135.79,135.79,0,0,1-29.3,2.07c-9-.42-9,13.47-.09,13.88a147.85,147.85,0,0,0,30.89-2.18c1,6.08,2.29,12.13,2.69,18.28-21.14,7.38-32.86,25.28-35.85,48,0,.16,0,.32,0,.49V128.79h13.33v-11.9H87.72a4.06,4.06,0,0,0,0-.55c0-.13,0-.27,0-.44.06-1,.24-1.35,1.22-1.54a4.66,4.66,0,0,1,.88-.06v.84h12.83a6.09,6.09,0,0,0,1.09.12,1.5,1.5,0,0,0,1.28-.49,1.17,1.17,0,0,0,.14-.72,1.1,1.1,0,0,1,.12-.65,1.29,1.29,0,0,1,.8-.4,3.56,3.56,0,0,0-.43,1.64h14.54c0-2.8-3.26-5.06-7.27-5.06a9.69,9.69,0,0,0-3.43.63c.24,2.39-2,2.16-2.88,2-.1.13-.19.26-.28.4a.61.61,0,0,0-.12,0,1.71,1.71,0,0,0-1.24.57,1.39,1.39,0,0,0-.22.92,1,1,0,0,1-.06.46,1,1,0,0,1-.8.29v-2H89.89v1.06a5.14,5.14,0,0,0-1,.08c-1.25.24-1.5.81-1.57,1.93,0,.17,0,.32,0,.45a2.87,2.87,0,0,1-.05.56H60.88v11.9h7.26v57.73H122.2v-5.78c.88,8.89,16.06,8.08,17.4-2.1,2.31-17.59,12.57-29.34,29.82-33.22C176.59,146.5,184.51,142.43,184.27,133.12ZM80.49,77.71l2.19,31.16-5.77.4L74.72,78.11Z"></path></g></g></svg> 