<?xml version="1.0" encoding="UTF-8"?> <svg xmlns="http://www.w3.org/2000/svg" viewBox="0 0 747.44 157.69"><defs><style>.cls-1{fill:#2a4b9b;}.cls-2{fill:#fbdd14;}.cls-3{fill:#e5352b;}.cls-4{fill:#078e38;}.cls-5{fill:#ededed;}.cls-6{fill:#f29106;}.cls-7{fill:#662681;}.cls-8{fill:#223768;}</style></defs><title>Recurso 1</title><g id="Capa_2" data-name="Capa 2"><g id="Capa_1-2" data-name="Capa 1"><path class="cls-1" d="M328.39,25.29q-18.93-24-51-23.88l-26,.11q-8.41,0-13.67,4.9t-5.26,13.22h-.11V49.56C230.29,104,174.62,99.3,174.59,99.3H155.83V95.65h18.76q24.65,0,38-11.94,15.59-14,15.58-34.75T215.44,15.43Q202.69,2.8,181.91,2.8l-28.57-.11a20.67,20.67,0,0,0-12.15,3.73q-6.93,4.9-6.93,14.39V149H131V15.48q0-11.94-11.58-11.94-9.44,0-12.54,10.23l-39,130.88q-1,3.44-2.49,3.43t-2.6-3.53L24,13.77Q21,3.55,11.79,3.55,0,3.55,0,15.58V157.68H9.48V15.05q0-3.4,2.4-3.41,1.85,0,2.94,3.73L53,143.94q4,13.75,12.48,13.75t12.47-13.75L116.08,15.38q1.11-3.73,3-3.73,2.44,0,2.44,3.41V157.68h22.23v-137q0-8,8.65-9.27h29.46q17,0,26.79,10.44,9.5,10.23,9.5,27.29,0,17.91-11.32,28-10.78,9.7-28.93,9.7H147.2v21.88h27.39c68.54-.13,67.42-59,67.32-59.22v-30q0-8,8.62-9.28h26.41q28.43,0,44.4,21.32,14.26,19.08,14.27,48.61,0,29.85-12.38,47.86-14.3,21-42.9,21H241.91V99.3h-9.49v58.39h48.5q32.51,0,49.57-23.13Q345.62,114,345.63,80.4q0-33.26-17.24-55.11"></path><path class="cls-1" d="M431.56,48.41h-5.33V17.69q0-3.64.45-8.91h-.13a28.45,28.45,0,0,1-1.37,4.44L409.52,48.41H406.9L391.29,13.48a27.55,27.55,0,0,1-1.37-4.69h-.13q.25,2.75.26,9V48.41h-5.17V2.62H392l14,31.93A40.8,40.8,0,0,1,408.12,40h.19q1.38-3.77,2.21-5.62L424.85,2.62h6.71Z"></path><path class="cls-1" d="M444.92,7.41a3.31,3.31,0,0,1-2.39-1,3.23,3.23,0,0,1-1-2.43A3.35,3.35,0,0,1,444.92.61a3.4,3.4,0,0,1,2.45,1,3.27,3.27,0,0,1,1,2.44,3.24,3.24,0,0,1-1,2.39,3.36,3.36,0,0,1-2.45,1m2.55,41h-5.24V15.71h5.24Z"></path><path class="cls-1" d="M484.56,48.41h-5.24V29.76q0-10.41-7.6-10.41a8.26,8.26,0,0,0-6.5,3,11,11,0,0,0-2.57,7.46V48.41h-5.24V15.71h5.24v5.43h.13a11.8,11.8,0,0,1,10.73-6.19q5.36,0,8.21,3.46t2.84,10Z"></path><path class="cls-1" d="M496.46,7.41a3.32,3.32,0,0,1-2.39-1,3.23,3.23,0,0,1-1-2.43A3.35,3.35,0,0,1,496.46.61a3.38,3.38,0,0,1,2.44,1,3.26,3.26,0,0,1,1,2.44,3.23,3.23,0,0,1-1,2.39,3.35,3.35,0,0,1-2.44,1m2.55,41h-5.24V15.71H499Z"></path><path class="cls-1" d="M507,47.23V41.61a15.49,15.49,0,0,0,9.42,3.16q6.9,0,6.9-4.6a4,4,0,0,0-.59-2.22,5.89,5.89,0,0,0-1.6-1.61,12.4,12.4,0,0,0-2.36-1.26q-1.36-.56-2.92-1.17A37.13,37.13,0,0,1,512,32.17a11.45,11.45,0,0,1-2.75-2,7.36,7.36,0,0,1-1.66-2.51,8.87,8.87,0,0,1-.56-3.29,7.8,7.8,0,0,1,1.05-4.07,9.37,9.37,0,0,1,2.81-3,13.08,13.08,0,0,1,4-1.8,17.76,17.76,0,0,1,4.65-.61,18.74,18.74,0,0,1,7.6,1.47v5.3a14.8,14.8,0,0,0-8.3-2.36,9.68,9.68,0,0,0-2.65.33,6.49,6.49,0,0,0-2,.94,4.37,4.37,0,0,0-1.31,1.45,3.86,3.86,0,0,0-.46,1.87,4.52,4.52,0,0,0,.46,2.14,4.71,4.71,0,0,0,1.36,1.53,10.3,10.3,0,0,0,2.17,1.21q1.28.54,2.91,1.18a40.93,40.93,0,0,1,3.89,1.71,13.35,13.35,0,0,1,2.94,2A7.74,7.74,0,0,1,528,36.24a8.19,8.19,0,0,1,.66,3.42,8,8,0,0,1-1.07,4.22,9.15,9.15,0,0,1-2.86,3,13.18,13.18,0,0,1-4.12,1.76,20.42,20.42,0,0,1-4.89.57A18.58,18.58,0,0,1,507,47.23"></path><path class="cls-1" d="M551.22,48.09a10.11,10.11,0,0,1-4.88,1q-8.59,0-8.59-9.58V20.18h-5.62V15.71h5.62v-8L543,6v9.68h8.24v4.47H543V38.61q0,3.29,1.12,4.69a4.47,4.47,0,0,0,3.71,1.4,5.51,5.51,0,0,0,3.42-1.08Z"></path><path class="cls-1" d="M583.84,33.37H560.76q.13,5.46,2.94,8.43a10.12,10.12,0,0,0,7.73,3,16.07,16.07,0,0,0,10.15-3.64V46q-4.31,3.13-11.4,3.13-6.93,0-10.89-4.46t-4-12.53q0-7.63,4.33-12.44a13.87,13.87,0,0,1,10.74-4.81q6.42,0,9.93,4.15t3.51,11.53Zm-5.36-4.44a10.67,10.67,0,0,0-2.19-7.06,7.45,7.45,0,0,0-6-2.52A8.45,8.45,0,0,0,564,22a12,12,0,0,0-3.2,6.93Z"></path><path class="cls-1" d="M608.16,21a6.41,6.41,0,0,0-4-1.05,6.67,6.67,0,0,0-5.6,3.16q-2.25,3.16-2.25,8.62V48.41h-5.24V15.71h5.24v6.74h.13a11.42,11.42,0,0,1,3.42-5.38A7.79,7.79,0,0,1,605,15.14a8.56,8.56,0,0,1,3.13.45Z"></path><path class="cls-1" d="M615.88,7.41a3.32,3.32,0,0,1-2.4-1,3.23,3.23,0,0,1-1-2.43A3.35,3.35,0,0,1,615.88.61a3.39,3.39,0,0,1,2.44,1,3.27,3.27,0,0,1,1,2.44,3.23,3.23,0,0,1-1,2.39,3.35,3.35,0,0,1-2.44,1m2.55,41h-5.24V15.71h5.24Z"></path><path class="cls-1" d="M642,49.18q-7.25,0-11.58-4.58t-4.33-12.15q0-8.24,4.5-12.87t12.17-4.63q7.31,0,11.41,4.5t4.1,12.49q0,7.82-4.42,12.53T642,49.18m.38-29.83a10,10,0,0,0-8,3.43q-2.94,3.43-2.94,9.47,0,5.81,3,9.16a10.09,10.09,0,0,0,8,3.35,9.57,9.57,0,0,0,7.81-3.29Q653,38.19,653,32.12t-2.73-9.45a9.53,9.53,0,0,0-7.81-3.32"></path><path class="cls-1" d="M711.21,48.41H706V42.85h-.13q-3.64,6.32-11.24,6.32a12.21,12.21,0,0,1-9.85-4.39q-3.69-4.39-3.69-12,0-8.11,4.09-13A13.48,13.48,0,0,1,696,14.94q6.74,0,9.8,5.3H706V0h5.24ZM706,33.62V28.8a9.36,9.36,0,0,0-2.62-6.71,8.78,8.78,0,0,0-6.64-2.75,9,9,0,0,0-7.54,3.51q-2.75,3.51-2.75,9.71,0,5.65,2.63,8.93a8.62,8.62,0,0,0,7.08,3.27,8.94,8.94,0,0,0,7.1-3.16,11.77,11.77,0,0,0,2.73-8"></path><path class="cls-1" d="M747.44,33.37H724.35q.13,5.46,2.94,8.43a10.13,10.13,0,0,0,7.73,3,16.08,16.08,0,0,0,10.15-3.64V46q-4.31,3.13-11.4,3.13-6.93,0-10.89-4.46t-4-12.53q0-7.63,4.33-12.44A13.87,13.87,0,0,1,734,14.94q6.42,0,9.93,4.15t3.51,11.53Zm-5.36-4.44a10.68,10.68,0,0,0-2.19-7.06,7.45,7.45,0,0,0-6-2.52A8.46,8.46,0,0,0,727.61,22a12,12,0,0,0-3.19,6.93Z"></path><path class="cls-1" d="M394.13,88.31v15.21h-9.95V59.37h15.58q16.69,0,16.69,14.07a13.51,13.51,0,0,1-4.79,10.76q-4.79,4.11-12.8,4.11Zm0-21.31V80.77H398q7.94,0,7.94-7Q406,67,398,67Z"></path><rect class="cls-1" x="421.34" y="56.84" width="9.73" height="46.68"></rect><path class="cls-1" d="M464.86,103.52h-9.21V99h-.12a10.27,10.27,0,0,1-9.39,5.3,9.83,9.83,0,0,1-7.22-2.6,9.33,9.33,0,0,1-2.63-6.94q0-9.18,10.87-10.59L455.72,83q0-5.17-5.61-5.17A19.14,19.14,0,0,0,439.4,81.2V73.87A24.21,24.21,0,0,1,445,72a29.18,29.18,0,0,1,6.42-.8q13.49,0,13.49,13.45Zm-9.14-12.81V88.59l-5.73.74q-4.74.62-4.74,4.28a3.53,3.53,0,0,0,1.15,2.72,4.43,4.43,0,0,0,3.12,1.06A5.76,5.76,0,0,0,454,95.5a6.83,6.83,0,0,0,1.73-4.79"></path><path class="cls-1" d="M502.38,103.52h-9.7V86q0-7.33-5.24-7.33a5.19,5.19,0,0,0-4.16,1.94,7.38,7.38,0,0,0-1.63,4.93v18h-9.73V72h9.73v5h.12a11.14,11.14,0,0,1,10.13-5.76q10.47,0,10.47,13Z"></path><path class="cls-1" d="M514.38,67a5.69,5.69,0,0,1-4-1.46A4.71,4.71,0,0,1,508.77,62a4.54,4.54,0,0,1,1.57-3.57,6.59,6.59,0,0,1,8.08,0A4.56,4.56,0,0,1,520,62a4.69,4.69,0,0,1-1.55,3.63A5.79,5.79,0,0,1,514.38,67m4.8,36.52h-9.73V72h9.73Z"></path><path class="cls-1" d="M547.31,64.29a9.85,9.85,0,0,0-3.6-.74q-4.68,0-4.68,5.08V72h7.21v7.17H539v24.36h-9.7V79.16H524V72h5.29V68.08a11.36,11.36,0,0,1,3.51-8.68q3.5-3.29,9.55-3.29a16.81,16.81,0,0,1,4.93.62Z"></path><path class="cls-1" d="M555.21,67a5.68,5.68,0,0,1-4-1.46A4.71,4.71,0,0,1,549.6,62a4.54,4.54,0,0,1,1.57-3.57,6.58,6.58,0,0,1,8.08,0A4.57,4.57,0,0,1,560.81,62a4.7,4.7,0,0,1-1.56,3.63,5.78,5.78,0,0,1-4,1.42m4.8,36.52h-9.73V72H560Z"></path><path class="cls-1" d="M591.47,102.38q-3.29,1.91-9.51,1.91-7.27,0-11.76-4.4a15.2,15.2,0,0,1-4.5-11.36q0-8,4.82-12.67t12.89-4.63q5.57,0,8.07,1.48V81a11.1,11.1,0,0,0-6.81-2.28A9,9,0,0,0,578,81.12a9.13,9.13,0,0,0-2.45,6.76,9,9,0,0,0,2.34,6.57,8.6,8.6,0,0,0,6.44,2.39,12.83,12.83,0,0,0,7.11-2.28Z"></path><path class="cls-1" d="M623.45,103.52h-9.21V99h-.12a10.27,10.27,0,0,1-9.39,5.3,9.83,9.83,0,0,1-7.22-2.6,9.32,9.32,0,0,1-2.63-6.94q0-9.18,10.87-10.59L614.3,83q0-5.17-5.61-5.17A19.13,19.13,0,0,0,598,81.2V73.87A24.17,24.17,0,0,1,603.54,72a29.17,29.17,0,0,1,6.42-.8q13.49,0,13.49,13.45ZM614.3,90.71V88.59l-5.73.74q-4.74.62-4.74,4.28A3.54,3.54,0,0,0,605,96.33a4.44,4.44,0,0,0,3.13,1.06,5.77,5.77,0,0,0,4.46-1.89,6.84,6.84,0,0,0,1.73-4.79"></path><path class="cls-1" d="M654.4,102.38q-3.29,1.91-9.52,1.91-7.26,0-11.76-4.4a15.21,15.21,0,0,1-4.49-11.36q0-8,4.82-12.67t12.89-4.63q5.57,0,8.07,1.48V81a11.09,11.09,0,0,0-6.8-2.28A9,9,0,0,0,641,81.12a9.13,9.13,0,0,0-2.45,6.76,9,9,0,0,0,2.34,6.57,8.58,8.58,0,0,0,6.43,2.39,12.83,12.83,0,0,0,7.11-2.28Z"></path><path class="cls-1" d="M665.07,67a5.69,5.69,0,0,1-4-1.46A4.71,4.71,0,0,1,659.47,62,4.54,4.54,0,0,1,661,58.38a6.59,6.59,0,0,1,8.08,0A4.56,4.56,0,0,1,670.68,62a4.69,4.69,0,0,1-1.56,3.63,5.78,5.78,0,0,1-4,1.42m4.81,36.52h-9.73V72h9.73Z"></path><path class="cls-1" d="M692.46,104.29q-7.89,0-12.4-4.42t-4.51-12q0-7.82,4.68-12.24t12.66-4.42q7.85,0,12.32,4.42t4.46,11.69q0,7.85-4.6,12.41t-12.61,4.56m.25-25.62A6.49,6.49,0,0,0,687.35,81a10.45,10.45,0,0,0-1.91,6.71q0,9.08,7.33,9.08,7,0,7-9.33,0-8.84-7.05-8.84m10.44-21.62L693.51,67h-7l8-9.95Z"></path><path class="cls-1" d="M745.78,103.52h-9.7V86q0-7.33-5.23-7.33a5.19,5.19,0,0,0-4.16,1.94,7.38,7.38,0,0,0-1.63,4.93v18h-9.73V72h9.73v5h.12a11.15,11.15,0,0,1,10.13-5.76q10.47,0,10.47,13Z"></path><path class="cls-1" d="M409.14,156.76h-4.67v-5h-.11a10.78,10.78,0,0,1-10,5.64,10.89,10.89,0,0,1-8.79-3.92q-3.29-3.92-3.29-10.67,0-7.24,3.65-11.6a12,12,0,0,1,9.71-4.36q6,0,8.75,4.73h.11V113.57h4.67Zm-4.67-13.19v-4.3a8.35,8.35,0,0,0-2.34-6,7.83,7.83,0,0,0-5.93-2.45,8.07,8.07,0,0,0-6.72,3.13q-2.45,3.13-2.45,8.66,0,5,2.35,8a7.68,7.68,0,0,0,6.31,2.92,8,8,0,0,0,6.34-2.82,10.5,10.5,0,0,0,2.44-7.12"></path><path class="cls-1" d="M441.46,143.34h-20.6q.11,4.87,2.62,7.52a9,9,0,0,0,6.89,2.65,14.34,14.34,0,0,0,9.06-3.25v4.39q-3.84,2.79-10.17,2.79t-9.71-4q-3.53-4-3.53-11.18a16,16,0,0,1,3.86-11.09,12.37,12.37,0,0,1,9.59-4.29q5.73,0,8.86,3.7t3.13,10.29Zm-4.79-4a9.5,9.5,0,0,0-2-6.29,6.64,6.64,0,0,0-5.34-2.25,7.55,7.55,0,0,0-5.61,2.36,10.75,10.75,0,0,0-2.85,6.18Z"></path><rect class="cls-1" x="447.95" y="113.57" width="4.67" height="43.19"></rect><path class="cls-1" d="M476.83,156.76V115.91H491.3q21.77,0,21.77,19.91,0,9.54-5.94,15.24t-15.83,5.7ZM486,123.4v25.9h4.56q6,0,9.39-3.59t3.4-9.77q0-5.84-3.37-9.19t-9.47-3.35Z"></path><path class="cls-1" d="M544.59,144.74h-19q.45,6.35,8,6.35a15.65,15.65,0,0,0,8.46-2.28v6.49a22.25,22.25,0,0,1-10.51,2.16q-7.07,0-11-3.92t-3.9-10.93q0-7.26,4.22-11.51a14,14,0,0,1,10.37-4.25q6.38,0,9.87,3.79T544.59,141Zm-8.35-5.53q0-6.27-5.07-6.27a4.84,4.84,0,0,0-3.75,1.79,8.13,8.13,0,0,0-1.92,4.47Z"></path><path class="cls-1" d="M547.45,156V148.7a19.2,19.2,0,0,0,4.43,2,14.74,14.74,0,0,0,4.17.65,9,9,0,0,0,3.77-.65,2.12,2.12,0,0,0,1.38-2,1.85,1.85,0,0,0-.63-1.43,5.83,5.83,0,0,0-1.61-1,18.1,18.1,0,0,0-2.15-.77q-1.17-.35-2.25-.77a21.71,21.71,0,0,1-3.06-1.41,8.75,8.75,0,0,1-2.22-1.75,6.86,6.86,0,0,1-1.37-2.31,9.18,9.18,0,0,1-.47-3.11,8,8,0,0,1,1.07-4.22,8.76,8.76,0,0,1,2.85-2.89,13,13,0,0,1,4.07-1.65,21.28,21.28,0,0,1,4.77-.53,26.5,26.5,0,0,1,3.93.3,29.09,29.09,0,0,1,3.93.87v7a14.2,14.2,0,0,0-3.66-1.5,15.48,15.48,0,0,0-3.83-.5,8.65,8.65,0,0,0-1.67.16,5.63,5.63,0,0,0-1.38.46,2.56,2.56,0,0,0-.94.77,1.77,1.77,0,0,0-.34,1.07,2,2,0,0,0,.51,1.37,4.38,4.38,0,0,0,1.34,1,13,13,0,0,0,1.84.74l2,.67a26.1,26.1,0,0,1,3.25,1.37,10.43,10.43,0,0,1,2.49,1.74,6.9,6.9,0,0,1,1.6,2.34,9.34,9.34,0,0,1-.57,7.62,9,9,0,0,1-3,3,13.64,13.64,0,0,1-4.3,1.68,24,24,0,0,1-5.06.53,26.11,26.11,0,0,1-8.92-1.48"></path><path class="cls-1" d="M598.72,156.76H590.2v-4.19h-.11a9.51,9.51,0,0,1-8.69,4.9,9.08,9.08,0,0,1-6.68-2.41,8.62,8.62,0,0,1-2.44-6.42q0-8.49,10.06-9.8l7.92-1.05q0-4.78-5.18-4.79a17.71,17.71,0,0,0-9.91,3.1v-6.78a22.42,22.42,0,0,1,5.14-1.71,27.12,27.12,0,0,1,5.94-.74q12.48,0,12.48,12.45Zm-8.46-11.85v-2l-5.3.68q-4.39.57-4.39,4a3.28,3.28,0,0,0,1.07,2.52,4.1,4.1,0,0,0,2.89,1,5.33,5.33,0,0,0,4.13-1.75,6.32,6.32,0,0,0,1.6-4.43"></path><path class="cls-1" d="M624.29,135.71a7.8,7.8,0,0,0-3.79-.88,5.45,5.45,0,0,0-4.59,2.15,9.37,9.37,0,0,0-1.65,5.85v13.93h-9V127.59h9V133h.11q2.13-5.93,7.69-5.93a5.83,5.83,0,0,1,2.22.34Z"></path><path class="cls-1" d="M646.92,135.71a7.79,7.79,0,0,0-3.79-.88,5.46,5.46,0,0,0-4.59,2.15,9.38,9.38,0,0,0-1.65,5.85v13.93h-9V127.59h9V133H637q2.13-5.93,7.69-5.93a5.82,5.82,0,0,1,2.22.34Z"></path><path class="cls-1" d="M664.43,157.47q-7.3,0-11.47-4.09t-4.17-11.1q0-7.24,4.33-11.32t11.71-4.09q7.26,0,11.39,4.09a14.53,14.53,0,0,1,4.13,10.81q0,7.27-4.26,11.48t-11.66,4.21m.23-23.7a6,6,0,0,0-5,2.19,9.67,9.67,0,0,0-1.77,6.21q0,8.4,6.78,8.4,6.47,0,6.47-8.63,0-8.18-6.52-8.18"></path><rect class="cls-1" x="685.61" y="113.57" width="9" height="43.19"></rect><rect class="cls-1" x="701.6" y="113.57" width="9" height="43.19"></rect><path class="cls-1" d="M731.5,157.47q-7.29,0-11.47-4.09t-4.17-11.1q0-7.24,4.33-11.32t11.71-4.09q7.27,0,11.4,4.09a14.53,14.53,0,0,1,4.13,10.81q0,7.27-4.26,11.48t-11.66,4.21m.23-23.7a6,6,0,0,0-5,2.19,9.66,9.66,0,0,0-1.77,6.21q0,8.4,6.78,8.4,6.47,0,6.47-8.63,0-8.18-6.52-8.18"></path><rect class="cls-2" x="354.12" y="51.03" width="4.39" height="54.17"></rect><rect class="cls-3" x="354.12" y="2.28" width="4.39" height="48.75"></rect><rect class="cls-4" x="354.12" y="105.2" width="4.39" height="52.27"></rect><rect class="cls-5" x="367.49" y="2.34" width="5.05" height="21.57"></rect><rect class="cls-2" x="367.49" y="23.91" width="5.05" height="23.63"></rect><rect class="cls-6" x="367.49" y="47.53" width="5.05" height="21.72"></rect><rect class="cls-3" x="367.49" y="69.25" width="5.05" height="21.27"></rect><rect class="cls-7" x="367.49" y="90.52" width="5.05" height="23.73"></rect><rect class="cls-8" x="367.49" y="114.25" width="5.05" height="20.63"></rect><rect class="cls-4" x="367.49" y="134.89" width="5.05" height="22.8"></rect></g></g></svg> 