<?xml version="1.0" encoding="UTF-8"?> <!-- Generator: Adobe Illustrator 21.0.0, SVG Export Plug-In . SVG Version: 6.00 Build 0) --> <svg xmlns="http://www.w3.org/2000/svg" xmlns:xlink="http://www.w3.org/1999/xlink" id="Capa_1" x="0px" y="0px" viewBox="0 0 850.4 425.2" style="enable-background:new 0 0 850.4 425.2;" xml:space="preserve"> <style type="text/css"> .st0{fill:#204E88;} .st1{fill:#009548;} .st2{fill:#FBEA16;} .st3{fill:#DF2027;} .st4{fill:#FFFFFF;} </style> <g id="XMLID_117_"> <path id="XMLID_186_" class="st0" d="M70.9,190.9c0.4-2.6,0.7-5.3,1.2-7.9c3.4-18.8,19.3-34.8,38-38.4c11.8-2.3,23.3-1.4,34.3,4 c6,2.9,11.1,7,15.3,12.1c0.3,0.3,0.5,0.7,0.9,1.1c-7.1,5.5-14.1,11-21.2,16.5c-1-1-1.8-2.1-2.8-3c-11.4-10.6-32.5-6.7-37.6,11.2 c-3.5,12.4,2.6,25.2,14.3,29.7c6.3,2.4,12.5,1.7,18.7-0.2c4-1.2,7.7-3.1,10.7-6.1c0.3-0.4,0.6-0.7,0.9-1.1c0.1-0.1,0.1-0.3,0.3-0.7 c-5.5,0-10.8,0-16.2,0c0-0.9,0-1.5,0-2.2c0-5.2,0-10.4,0-15.7c0-1,0.3-1.3,1.3-1.3c12.9,0,25.7,0,38.6,0c1,0,1.4,0.3,1.4,1.4 c0,16.6,0,33.3,0,49.9c0,0.7,0,1.3-1,1.3c-6.4,0-12.8,0-19.1,0c-0.2,0-0.3-0.1-0.6-0.1c-0.3-1.7-0.6-3.5-0.9-5.3 c-2.2,1.2-4.2,2.4-6.2,3.4c-8.7,4.4-17.9,5.5-27.6,4.2c-10.2-1.4-19.3-5.3-27-12.2c-8.2-7.5-13-16.9-14.8-27.8 c-0.4-2.2-0.6-4.4-0.9-6.6C70.9,195,70.9,193,70.9,190.9z"></path> <path id="XMLID_183_" class="st0" d="M470.2,378.6c0-0.6-0.1-1.2-0.1-1.9c0-29.3,0-58.6,0-87.8c0-0.3,0-0.5,0-0.8 c-0.1-1,0.3-1.4,1.4-1.4c6.2,0,12.3,0,18.5,0c0.9,0,1.9,0,2.9,0c0.3,1.9,0.6,3.8,0.9,5.7c0.5-0.4,0.8-0.6,1-0.8 c12.6-10.9,32.3-8.5,42.3,6c5.2,7.5,6.9,16,6.1,24.9c-0.8,9.9-4.5,18.4-12.3,24.8c-10,8.3-24.1,8-34.1,1.5 c-0.7-0.4-1.3-0.9-2.1-1.4c-0.1,0.3-0.2,0.4-0.2,0.6c0,10.1,0,20.3,0,30.4C486.4,378.6,478.3,378.6,470.2,378.6z M522.7,319.3 c0-9-7.5-16.4-16.5-16.4c-9,0-16.5,7.5-16.5,16.6c0,9,7.5,16.4,16.5,16.4C515.3,335.8,522.7,328.3,522.7,319.3z"></path> <path id="XMLID_182_" class="st0" d="M779.5,241.5c-8.1,0-16.2,0-24.6,0c0-0.6,0-1.1,0-1.7c0-12,0-24.1-0.1-36.1 c0-1.7-0.3-3.5-0.9-5.1c-1-2.9-3.3-4.2-6.3-4.3c-3-0.1-5.5,1-6.6,3.9c-0.7,1.9-1.2,4.1-1.2,6.1c-0.1,11.7-0.1,23.5-0.1,35.2 c0,0.6,0,1.2,0,1.9c-0.5,0-1,0.1-1.5,0.1c-7.1,0-14.3,0-21.4,0c-1.1,0-1.6-0.3-1.5-1.5c0-20.8,0-41.6,0-62.4c0-1.2,0.4-1.6,1.6-1.6 c6.9,0,13.7,0.1,20.6,0c1.3,0,1.6,0.5,1.7,1.7c0.1,2.3,0.4,4.5,0.6,7.1c0.5-0.5,0.8-0.8,1.2-1.1c4.4-4.6,9.5-7.9,15.9-9 c3.6-0.6,7.1-0.6,10.6,0.2c6.2,1.5,10.6,6.4,11.6,13.2c0.1,0.5,0.2,0.9,0.3,1.4C779.5,206.9,779.5,224.2,779.5,241.5z"></path> <path id="XMLID_179_" class="st0" d="M204.5,46.5c2.3,0.4,4.6,0.8,6.9,1.3c10.8,2.6,19.3,11.6,20.1,23.2c0.4,5.6,0.1,11.1-2.1,16.3 c-3.9,8.9-11,13.7-20.2,15.6c-3.4,0.7-7,1-10.5,1.1c-6.1,0.2-12.2,0-18.3,0c-0.5,0-1.1,0-1.7,0c0,0.8-0.1,1.4-0.1,2.1 c0,11.4,0,22.8,0,34.1c0,1.8,0,1.8-1.8,1.8c-1.7,0-3.5,0-5.5,0c0-0.7,0-1.3,0-1.9c0-30.6,0-61.2,0-91.8c0-0.6,0-1.2,0-1.9 C182.4,46.5,193.4,46.5,204.5,46.5z M178.6,97.8c0.6,0,1,0.1,1.4,0.1c5.9,0,11.9,0.1,17.8,0c4.3-0.1,8.6-0.4,12.8-1.7 c6.9-2.2,11.9-6.3,13.5-13.6c0.7-3,0.8-6.2,0.7-9.3c-0.3-8.6-5.8-15.7-13.9-18.5c-3.8-1.3-7.6-1.7-11.6-1.8c-6.3-0.1-12.6,0-18.9,0 c-1.9,0-1.9,0-1.9,1.9c0,13.7,0,27.5,0,41.2C178.6,96.6,178.6,97.1,178.6,97.8z"></path> <path id="XMLID_177_" class="st0" d="M256.2,46.5c0,0.6-0.1,1.2-0.1,1.7c0,30.6,0,61.3,0,91.9c0,0.6,0,1.1,0,1.8 c-2.5,0-4.8,0-7.4,0c0-0.5,0-1.1,0-1.7c0-30.7,0-61.4,0-92.1c0-0.6,0-1.2-0.1-1.7C251.2,46.5,253.7,46.5,256.2,46.5z"></path> <path id="XMLID_176_" class="st0" d="M277.9,304.3c0-15.3,0-30.6,0-45.9c0-1.3,0.3-1.7,1.7-1.7c24.5,0,48.9,0,73.4,0 c1.3,0,1.8,0.2,1.7,1.7c-0.1,5.4,0,10.9,0,16.3c0,1.8,0,1.8-1.7,1.8c-15.4,0-30.7,0-46.1,0c-2.6,0-2.2-0.1-2.2,2.2 c0,4.4,0,8.7,0,13.1c0,1.2,0.4,1.5,1.5,1.5c11.7,0,23.4,0,35.1-0.1c1.3,0,1.6,0.4,1.6,1.6c0,6.2,0,12.3,0,18.5 c0,1.2-0.3,1.6-1.6,1.6c-11.6-0.1-23.3,0-34.9-0.1c-1.3,0-1.7,0.3-1.7,1.6c0.1,4.6,0.1,9.2,0,13.8c0,1.3,0.4,1.6,1.7,1.6 c15.8,0,31.6,0,47.4-0.1c1.4,0,1.7,0.4,1.7,1.7c-0.1,5.6,0,11.2,0,16.9c0,1.8,0,1.8-1.7,1.8c-24.7,0-49.4,0-74,0 c-1.4,0-1.7-0.4-1.7-1.7C278,335.1,277.9,319.7,277.9,304.3z"></path> <path id="XMLID_174_" class="st0" d="M363.1,286.9c0.6,0,1.1-0.1,1.6-0.1c6.4,0,12.9,0,19.3,0c1.3,0,1.7,0.5,1.8,1.6 c0.1,2.1,0.3,4.2,0.5,6.3c0.1,0,0.2,0.1,0.4,0.1c0.9-1,1.9-2,2.8-3c6.9-6.8,17.6-9,25.8-5.1c2,1,3.8,2.6,5.6,4.1 c1,0.8,1.8,2,2.9,3.3c0.2-0.4,0.4-0.8,0.7-1.1c5.8-6.4,13.1-8.6,21.5-8.1c3.5,0.2,6.7,1.2,9.4,3.5c3.4,2.9,4.9,6.7,5.3,11 c0.2,2.3,0.3,4.7,0.3,7.1c0,14.6,0,29.3,0,43.9c0,1.3-0.3,1.7-1.6,1.7c-6.9-0.1-13.8-0.1-20.8,0c-1.4,0-1.7-0.4-1.7-1.8 c0-11.9,0-23.7,0-35.6c0-1.8-0.3-3.7-0.8-5.5c-0.7-2.7-2.4-3.9-5.2-4c-2.7-0.1-4.8,1.1-5.5,3.7c-0.6,2.4-0.9,4.9-0.9,7.4 c-0.1,11.3,0,22.6,0,33.9c0,1.9,0,1.9-1.9,1.9c-6.8,0-13.6,0-20.4,0c-1.8,0-1.8,0-1.8-1.8c0-12.3,0-24.6-0.1-36.8 c0-1.7-0.5-3.5-1-5.2c-0.7-2.1-2.5-2.9-4.7-2.9c-2.3,0-4.4,0.5-5.5,2.8c-1,2-1.3,4.1-1.3,6.2c0,11.9,0,23.8,0,35.8c0,2,0,2-2,2 c-7,0-13.9,0-20.9,0c-1.1,0-1.6-0.2-1.6-1.5c0-20.9,0-41.8,0-62.7C363.1,287.8,363.1,287.4,363.1,286.9z"></path> <path id="XMLID_170_" class="st0" d="M498,236.3c-4,4.4-9,6.2-14.3,6.9c-7.3,1-14.5,0.5-20.9-3.7c-5.3-3.5-8-8.7-8.4-14.9 c-0.9-13.7,9-24.4,22.6-25.8c7.3-0.8,14.2,0.7,20.6,4.3c0.3,0.2,0.6,0.3,0.9,0.5c1.4-4.3-0.3-8.4-4.4-10.1c-4.5-1.9-9.3-2-14.1-1.6 c-5.6,0.4-11,1.9-16.3,4.4c-2.2-5.2-4.3-10.4-6.5-15.8c1.7-0.7,3.4-1.4,5-2c9.9-3.3,20.1-4.6,30.6-4c4.4,0.3,8.7,0.9,12.8,2.5 c9.9,3.6,15.4,11,17.2,21.2c0.5,3,0.7,6.1,0.7,9.2c0.1,10.8,0,21.7,0,32.5c0,1.7,0,1.7-1.8,1.7c-7.1,0-14.3,0-21.4,0 c-1.2,0-1.8-0.1-1.8-1.5C498.5,238.9,498.2,237.8,498,236.3z M488.5,228.4c3.1-0.1,6.2-0.7,8.6-3.1c2.7-2.6,2.9-6.8,0.4-9.6 c-1.6-1.8-3.8-2.8-6.1-3.3c-4.1-0.9-8.1-0.6-11.5,2.3c-4,3.5-3.4,9.1,1.2,11.8C483.4,227.8,485.8,228.3,488.5,228.4z"></path> <path id="XMLID_168_" class="st0" d="M279.7,241.4c-8.2,0-16.3,0-24.4,0c0-0.5-0.1-0.9-0.1-1.4c0-20.8,0-41.6,0-62.4 c0-1.2,0.3-1.6,1.5-1.6c6.9,0.1,13.8,0,20.8,0c1.1,0,1.5,0.3,1.6,1.4c0.1,1.7,0.3,3.4,0.4,5.1c0.1,0.7,0.1,1.4,0.2,2.3 c1.4-1.3,2.5-2.5,3.7-3.5c6.7-5.8,14.3-8.1,23.1-6.5c7,1.3,10.7,5.9,12.3,12.5c0.4,1.7,0.5,3.4,0.5,5.2c0,15.7,0,31.4,0,47.1 c0,0.5,0,1.1,0,1.8c-0.5,0-1,0.1-1.5,0.1c-7.2,0-14.4,0-21.6,0c-1.2,0-1.6-0.3-1.6-1.6c0-11.6,0-23.2,0-34.8c0-1.6-0.1-3.2-0.4-4.8 c-0.8-4.1-3.3-6.1-7.3-6c-3.8,0.1-6.4,2.5-7,6.5c-0.2,1.4-0.3,2.8-0.3,4.1c0,11.6,0,23.1,0,34.7 C279.7,240.2,279.7,240.8,279.7,241.4z"></path> <path id="XMLID_165_" class="st0" d="M654.7,323.4c-1,0-1.6,0-2.1,0c-14,0-28,0-42,0c-1.8,0-1.8,0-1.4,1.8 c1.3,5.3,6.4,9.3,11.9,9.5c5.6,0.3,10.2-1.8,13.7-6.4c5.8,3.4,11.5,6.7,17.4,10.2c-1.4,2.8-3.2,5.1-5.5,7.1 c-5.3,4.5-11.4,7.3-18.3,8.1c-8.7,1.1-17.2,0.3-25.2-3.4c-10.9-5-17.8-13.4-19.4-25.4c-2.6-19.3,8.8-36.1,28.8-39.5 c9.9-1.7,19.3-0.4,27.8,5.3c7.8,5.3,12.1,12.8,13.6,22C654.4,316.2,654.4,319.7,654.7,323.4z M630.3,314c0-0.5,0-0.8,0-1.2 c-0.7-5.6-4.4-9.3-10-9.7c-6.8-0.5-10.9,3.4-11.5,9.4c-0.1,1.2,0.2,1.6,1.5,1.6c6.2-0.1,12.4,0,18.6,0 C629.3,314.1,629.8,314,630.3,314z"></path> <path id="XMLID_161_" class="st0" d="M202.3,212.8c-0.1,4.3,3.4,8.9,8,10.5c5.3,1.9,12.8,1.1,17.8-5.5c5.7,3.4,11.5,6.7,17.4,10.2 c-0.6,0.9-1.1,1.9-1.7,2.7c-4.8,6.7-11.6,10.4-19.4,12c-9.7,1.9-19.4,1.2-28.5-3.2c-12.4-6-18.9-15.9-19.1-29.7 c-0.2-9.5,2.7-17.8,9.3-24.7c5.7-6,12.8-9.3,20.9-10.4c7.2-1,14.3-0.4,21.1,2.5c10.7,4.7,16.9,12.9,19,24.3 c0.7,3.6,0.7,7.4,1.1,11.3C232.6,212.8,217.5,212.8,202.3,212.8z M202.1,203.3c7.3,0,14.4,0,21.6,0c-0.2-4.1-1.7-7.5-5.3-9.4 c-4.1-2.2-8.4-2.1-12.3,0.6C203.1,196.5,202.1,199.7,202.1,203.3z"></path> <path id="XMLID_157_" class="st0" d="M395.6,227.9c-1.9,3.6-4.4,6.5-7.5,8.7c-6.3,4.5-13.3,6.7-21,6.9c-10.5,0.3-20.2-2-28.5-8.7 c-7-5.7-10.8-13.2-11.6-22.2c-0.6-7.1,0.6-13.9,3.9-20.2c4.3-8.1,11-13.5,19.7-16.2c10.2-3.2,20.3-2.8,29.9,2.1 c9.6,4.9,15,13.1,16.8,23.6c0.6,3.5,0.6,7.2,0.9,10.9c-15.5,0-30.6,0-45.7,0c0,4.2,3.3,8.9,8,10.4c7.1,2.4,13,0.4,17.8-5.4 C384,221.2,389.7,224.5,395.6,227.9z M373.9,203.3c-0.3-4.1-1.7-7.4-5.2-9.3c-4.1-2.2-8.4-2.2-12.3,0.4c-3.1,2-4.2,5.3-4.1,8.9 C359.5,203.3,366.6,203.3,373.9,203.3z"></path> <path id="XMLID_153_" class="st0" d="M696.4,285c8.1-0.1,15.6,1.9,22.1,7c7.2,5.6,11.3,13.1,12.5,22.1c1.3,9.4-0.5,18.1-6,25.9 c-5.5,7.9-13.2,12.3-22.7,13.7c-8.8,1.3-17.4,0.4-25.2-4.1c-9.7-5.5-15.3-14-16.8-25c-1.4-10.9,1.3-20.6,8.9-28.7 c5.8-6.2,13.1-9.6,21.5-10.6c0.9-0.1,1.9-0.2,2.8-0.3C694.6,284.9,695.5,285,696.4,285z M679,319.2c0,9.2,7.2,16.5,16.4,16.6 c9,0,16.4-7.3,16.4-16.4c0-9.1-7.3-16.5-16.3-16.6C686.4,302.8,679,310.1,679,319.2z"></path> <path id="XMLID_149_" class="st0" d="M672.5,174.2c9.1,0,17.4,2.5,24.2,8.8c6.5,6,9.9,13.5,10.7,22.2c0.8,8.7-1,16.7-6,23.9 c-5.6,8.1-13.4,12.6-23.1,14c-8,1.2-15.8,0.5-23.1-3.1c-10.9-5.4-17.2-14.2-18.7-26.2c-1.4-11.3,1.6-21.2,9.8-29.3 c5.7-5.7,12.7-8.8,20.6-9.8C668.8,174.4,670.7,174.3,672.5,174.2z M654.7,210c0,9.1,7.4,16.6,16.4,16.6c9.1,0,16.5-7.5,16.5-16.5 c0-9-7.4-16.4-16.4-16.4C662.1,193.6,654.7,201,654.7,210z"></path> <path id="XMLID_147_" class="st0" d="M597.4,189.6c-6.4,4.8-12.7,9.6-19.1,14.5c-2.4-4.6-5.6-7.9-11.1-8c-3.5,0-6.4,1.3-8.8,3.8 c-5,5.1-4.5,13.6,0.9,18.2c4.7,4,14.3,4.2,18.8-4.1c6.4,4.6,12.9,9.3,19.3,13.9c-3.2,5.1-7.6,8.9-12.8,11.7 c-6.1,3.2-12.6,4.2-19.4,3.9c-7.1-0.3-13.7-2.1-19.6-6.2c-8.3-5.8-12.9-13.9-14-23.9c-1.2-10.9,1.8-20.4,9.4-28.3 c5.2-5.5,11.7-8.7,19.1-10c8-1.4,15.9-0.9,23.4,2.5C589.2,180.1,593.9,184.1,597.4,189.6z"></path> <path id="XMLID_146_" class="st0" d="M551.1,304.5c0-15.4,0-30.8,0-46.2c0-1.3,0.4-1.6,1.7-1.6c7.1,0.1,14.2,0.1,21.3,0 c1.3,0,1.6,0.4,1.6,1.7c0,30.7,0,61.5,0,92.2c0,1.4-0.4,1.7-1.7,1.7c-7-0.1-14.1-0.1-21.1,0c-1.4,0-1.7-0.4-1.7-1.7 C551.2,335.2,551.1,319.8,551.1,304.5z"></path> <path id="XMLID_145_" class="st0" d="M429.7,241.4c-8.1,0-16.1,0-24.3,0c0-0.5-0.1-0.9-0.1-1.4c0-20.8,0-41.6,0-62.4 c0-1.3,0.4-1.6,1.6-1.6c6.8,0,13.6,0.1,20.4,0c1.3,0,1.8,0.3,1.8,1.7c-0.1,3.7,0,7.3,0,11c0,0.5,0.1,1,0.1,1.9 c0.3-0.5,0.6-0.7,0.6-0.9c1.4-8.2,6.8-12.5,14.3-14.5c2.6-0.7,5.5-0.7,8.2-1c0.9-0.1,1.2,0.3,1.2,1.1c0,8.3,0,16.7,0,25 c0,1-0.6,1.1-1.3,1.2c-2.7,0.3-5.5,0.3-8.1,0.9c-8.6,2.1-13.7,8.2-14,16.9c-0.3,6.7-0.2,13.4-0.2,20.1 C429.7,240.2,429.7,240.8,429.7,241.4z"></path> <path id="XMLID_143_" class="st0" d="M628.4,241.4c-8.1,0-16.1,0-24.3,0c0-0.6,0-1.1,0-1.7c0-20.6,0-41.2,0-61.8 c0-1.8,0-1.9,1.8-1.9c6.9,0,13.8,0,20.7,0c1.8,0,1.8,0,1.8,1.7c0,20.7,0,41.4,0,62.1C628.5,240.4,628.4,240.9,628.4,241.4z"></path> <path id="XMLID_138_" class="st0" d="M324.9,104.7c-0.2-3.3,0-6.6-0.5-9.8c-0.8-4.4-3.8-7.5-7.5-9.8c-4.9-3-10.4-4.1-16.1-4.1 c-4.3,0.1-8.4,0.7-12.6,1.9c-0.5-1.9-1.1-3.8-1.5-5.7c0-0.2,0.5-0.8,0.9-0.8c2.5-0.4,4.9-0.9,7.4-1.1c4.4-0.2,8.7-0.6,13.1-0.3 c9,0.7,16.6,4.3,21.2,12.6c2.1,3.9,2.8,8.2,2.8,12.6c0,13.5,0,27,0,40.6c0,0.3-0.1,0.7-0.1,1.2c-2,0-4,0-6-0.1 c-0.3,0-0.7-0.7-0.7-1.1c-0.2-1.6-0.3-3.1-0.4-4.9c-0.4,0.2-0.6,0.3-0.7,0.5c-5.3,4.9-11.6,7.1-18.7,7.5 c-6.5,0.4-12.7-0.6-18.2-4.2c-8.6-5.6-12.1-13.8-10.7-23.8c1.4-9.7,7.7-15.6,16.7-18.4c10.5-3.3,20.2-1.4,28.8,5.4 c0.8,0.6,1.6,1.2,2.4,1.9C324.6,104.8,324.7,104.7,324.9,104.7z M303.3,137.4c5.5,0,10.7-1.7,15.1-5.3c8.3-6.8,8.4-18.1,0.1-24.5 c-7.7-6-19.9-6.4-28-0.9c-9,6.1-10,18-2,25.3C292.6,135.7,297.6,137.4,303.3,137.4z"></path> <path id="XMLID_136_" class="st0" d="M354.9,142c0-21.8,0-43.5,0-65.3c2.2,0,4.4,0,6.7,0c0.2,3.8,0.4,7.7,0.5,11.9 c1.3-1.3,2.4-2.4,3.6-3.4c5-4.8,10.8-8.3,17.7-9.7c4.5-0.9,8.9-1,13.4,0.1c6.9,1.6,11.7,6.8,12.8,13.8c0.4,2.5,0.6,5.1,0.6,7.7 c0.1,14.4,0,28.7,0,43.1c0,0.6,0,1.1,0,1.8c-2.4,0-4.7,0-7.1,0c0-0.5-0.1-1.1-0.1-1.7c0-14.5,0-29,0-43.5c0-2.3-0.2-4.7-0.8-7 c-1.2-5.2-5.4-8.5-10.8-9.1c-10.4-1-18.2,3.5-24.7,11.1c-4.6,5.4-4.5,5.5-4.5,12.5c0,12,0,24,0,36c0,0.5,0,1.1,0,1.7 C359.7,142,357.4,142,354.9,142z"></path> <path id="XMLID_135_" class="st0" d="M604.2,146.3c8.2,0,16.4,0,24.6,0c0,0.4,0.1,0.7,0.1,1c0,6.2,0,12.3,0,18.5 c0,1.1-0.3,1.4-1.4,1.4c-7.4,0-14.8,0-22.2,0c-0.9,0-1.3-0.2-1.3-1.2c0-6.3,0-12.7,0-19C604.1,146.8,604.2,146.6,604.2,146.3z"></path> <path id="XMLID_131_" class="st0" d="M199.4,346c-6.7,9.2-19.6,8.2-25.5,2.8c-6.7-6.1-7.7-17.6-1.8-25.1c3.5-4.4,8.2-6.4,13.7-6.2 c5.5,0.2,9.8,2.7,13.6,7c0-0.8,0.1-1.3,0.1-1.8c0-6.2,0-12.5,0-18.7c0-1.2,0.3-1.7,1.6-1.6c0.4,0.1,0.9-0.1,1.3,0.1 c0.3,0.1,0.7,0.5,0.8,0.8c0.1,0.5,0,1.1,0,1.6c0,15.3,0,30.5,0,45.8c0,0.5-0.2,1.3-0.4,1.4c-0.9,0.1-1.8,0-2.8-0.1 c-0.1,0-0.2-0.6-0.2-1C199.6,349.5,199.5,347.9,199.4,346z M185.2,321.2c-7.8,0-13.2,5.9-13.3,14.2c0,8.4,5.5,14.1,13.6,14.1 c8,0,13.6-5.7,13.6-13.9C199.2,327.3,193.2,321.2,185.2,321.2z"></path> <path id="XMLID_127_" class="st0" d="M248.8,336.6c-10.6,0-21.1,0-31.6,0c-0.3,4.8,3.3,9.7,7.7,11.8c6.1,2.9,12.6,1.1,18.9-5.5 c0.5,0.3,1,0.6,1.4,0.9c0.5,0.3,0.9,0.6,1.4,0.9c-3.9,7.5-14.8,10.8-23.2,7.1c-9.2-4-12.1-14.6-9.3-23.1 c3.2-9.6,13.6-13.2,22.3-10.9C246.1,320.4,249.8,330.4,248.8,336.6z M245.2,332.8c0.2-3.7-2.8-8.4-7-10.4 c-5.4-2.7-10.8-2.5-15.8,0.9c-3.3,2.2-5.1,5.4-5.4,9.5C226.5,332.8,235.8,332.8,245.2,332.8z"></path> <path id="XMLID_125_" class="st0" d="M664.6,168.8c0.6-1.5,1.1-2.8,1.6-4.1c2.4-5.9,4.7-11.8,7.1-17.7c0.4-1,0.9-1.4,2-1.3 c5.8,0.7,11.7,1.3,17.5,2c0.9,0.1,1.8,0.2,3,0.4c-0.6,0.8-1,1.4-1.5,2c-4.5,5.9-8.9,11.8-13.3,17.8c-0.6,0.8-1.2,1.1-2.2,1.1 c-4.2-0.1-8.5,0-12.7,0C665.6,168.9,665.2,168.9,664.6,168.8z"></path> <path id="XMLID_124_" class="st1" d="M695.5,306.6c6.1-0.3,12.6,4.9,12.6,12.7c0,7.7-6.5,12.8-12.9,12.7 c-6.9-0.1-12.6-5.8-12.5-12.8C682.8,311.6,689.2,306.3,695.5,306.6z"></path> <path id="XMLID_119_" class="st2" d="M506.4,306.6c6.1-0.3,12.6,4.9,12.6,12.7c0,7.7-6.5,12.8-12.9,12.7 c-6.9-0.1-12.6-5.8-12.5-12.8C493.6,311.6,500.1,306.3,506.4,306.6z"></path> <path id="XMLID_118_" class="st3" d="M671.3,197.3c7,0,12.7,5.8,12.7,12.8c0,7.1-5.8,12.9-12.8,12.9c-7.1,0-13-5.9-12.9-13.1 C658.3,202.8,664.2,197.2,671.3,197.3z"></path> </g> <g> <path id="XMLID_50_" class="st4" d="M952.5,190.9c0.4-2.6,0.7-5.3,1.2-7.9c3.4-18.8,19.3-34.8,38-38.4c11.8-2.3,23.3-1.4,34.3,4 c6,2.9,11.1,7,15.3,12.1c0.3,0.3,0.5,0.7,0.9,1.1c-7.1,5.5-14.1,11-21.2,16.5c-1-1-1.8-2.1-2.8-3c-11.4-10.6-32.5-6.7-37.6,11.2 c-3.5,12.4,2.6,25.2,14.3,29.7c6.3,2.4,12.5,1.7,18.7-0.2c4-1.2,7.7-3.1,10.7-6.1c0.3-0.4,0.6-0.7,0.9-1.1c0.1-0.1,0.1-0.3,0.3-0.7 c-5.5,0-10.8,0-16.2,0c0-0.9,0-1.5,0-2.2c0-5.2,0-10.4,0-15.7c0-1,0.3-1.3,1.3-1.3c12.9,0,25.7,0,38.6,0c1,0,1.4,0.3,1.4,1.4 c0,16.6,0,33.3,0,49.9c0,0.7,0,1.3-1,1.3c-6.4,0-12.8,0-19.1,0c-0.2,0-0.3-0.1-0.6-0.1c-0.3-1.7-0.6-3.5-0.9-5.3 c-2.2,1.2-4.2,2.4-6.2,3.4c-8.7,4.4-17.9,5.5-27.6,4.2c-10.2-1.4-19.3-5.3-27-12.2c-8.2-7.5-13-16.9-14.8-27.8 c-0.4-2.2-0.6-4.4-0.9-6.6C952.5,195,952.5,193,952.5,190.9z"></path> <path id="XMLID_47_" class="st4" d="M1351.8,378.6c0-0.6-0.1-1.2-0.1-1.9c0-29.3,0-58.6,0-87.8c0-0.3,0-0.5,0-0.8 c-0.1-1,0.3-1.4,1.4-1.4c6.2,0,12.3,0,18.5,0c0.9,0,1.9,0,2.9,0c0.3,1.9,0.6,3.8,0.9,5.7c0.5-0.4,0.8-0.6,1-0.8 c12.6-10.9,32.3-8.5,42.3,6c5.2,7.5,6.9,16,6.1,24.9c-0.8,9.9-4.5,18.4-12.3,24.8c-10,8.3-24.1,8-34.1,1.5 c-0.7-0.4-1.3-0.9-2.1-1.4c-0.1,0.3-0.2,0.4-0.2,0.6c0,10.1,0,20.3,0,30.4C1368,378.6,1359.9,378.6,1351.8,378.6z M1404.3,319.3 c0-9-7.5-16.4-16.5-16.4c-9,0-16.5,7.5-16.5,16.6c0,9,7.5,16.4,16.5,16.4C1396.9,335.8,1404.3,328.3,1404.3,319.3z"></path> <path id="XMLID_46_" class="st4" d="M1661.1,241.5c-8.1,0-16.2,0-24.6,0c0-0.6,0-1.1,0-1.7c0-12,0-24.1-0.1-36.1 c0-1.7-0.3-3.5-0.9-5.1c-1-2.9-3.3-4.2-6.3-4.3c-3-0.1-5.5,1-6.6,3.9c-0.7,1.9-1.2,4.1-1.2,6.1c-0.1,11.7-0.1,23.5-0.1,35.2 c0,0.6,0,1.2,0,1.9c-0.5,0-1,0.1-1.5,0.1c-7.1,0-14.3,0-21.4,0c-1.1,0-1.6-0.3-1.5-1.5c0-20.8,0-41.6,0-62.4c0-1.2,0.4-1.6,1.6-1.6 c6.9,0,13.7,0.1,20.6,0c1.3,0,1.6,0.5,1.7,1.7c0.1,2.3,0.4,4.5,0.6,7.1c0.5-0.5,0.8-0.8,1.2-1.1c4.4-4.6,9.5-7.9,15.9-9 c3.6-0.6,7.1-0.6,10.6,0.2c6.2,1.5,10.6,6.4,11.6,13.2c0.1,0.5,0.2,0.9,0.3,1.4C1661.1,206.9,1661.1,224.2,1661.1,241.5z"></path> <path id="XMLID_43_" class="st4" d="M1086.1,46.5c2.3,0.4,4.6,0.8,6.9,1.3c10.8,2.6,19.3,11.6,20.1,23.2c0.4,5.6,0.1,11.1-2.1,16.3 c-3.9,8.9-11,13.7-20.2,15.6c-3.4,0.7-7,1-10.5,1.1c-6.1,0.2-12.2,0-18.3,0c-0.5,0-1.1,0-1.7,0c0,0.8-0.1,1.4-0.1,2.1 c0,11.4,0,22.8,0,34.1c0,1.8,0,1.8-1.8,1.8c-1.7,0-3.5,0-5.5,0c0-0.7,0-1.3,0-1.9c0-30.6,0-61.2,0-91.8c0-0.6,0-1.2,0-1.9 C1064,46.5,1075,46.5,1086.1,46.5z M1060.2,97.8c0.6,0,1,0.1,1.4,0.1c5.9,0,11.9,0.1,17.8,0c4.3-0.1,8.6-0.4,12.8-1.7 c6.9-2.2,11.9-6.3,13.5-13.6c0.7-3,0.8-6.2,0.7-9.3c-0.3-8.6-5.8-15.7-13.9-18.5c-3.8-1.3-7.6-1.7-11.6-1.8c-6.3-0.1-12.6,0-18.9,0 c-1.9,0-1.9,0-1.9,1.9c0,13.7,0,27.5,0,41.2C1060.2,96.6,1060.2,97.1,1060.2,97.8z"></path> <path id="XMLID_42_" class="st4" d="M1137.8,46.5c0,0.6-0.1,1.2-0.1,1.7c0,30.6,0,61.3,0,91.9c0,0.6,0,1.1,0,1.8 c-2.5,0-4.8,0-7.4,0c0-0.5,0-1.1,0-1.7c0-30.7,0-61.4,0-92.1c0-0.6,0-1.2-0.1-1.7C1132.8,46.5,1135.3,46.5,1137.8,46.5z"></path> <path id="XMLID_41_" class="st4" d="M1159.6,304.3c0-15.3,0-30.6,0-45.9c0-1.3,0.3-1.7,1.7-1.7c24.5,0,48.9,0,73.4,0 c1.3,0,1.8,0.2,1.7,1.7c-0.1,5.4,0,10.9,0,16.3c0,1.8,0,1.8-1.7,1.8c-15.4,0-30.7,0-46.1,0c-2.6,0-2.2-0.1-2.2,2.2 c0,4.4,0,8.7,0,13.1c0,1.2,0.4,1.5,1.5,1.5c11.7,0,23.4,0,35.1-0.1c1.3,0,1.6,0.4,1.6,1.6c0,6.2,0,12.3,0,18.5 c0,1.2-0.3,1.6-1.6,1.6c-11.6-0.1-23.3,0-34.9-0.1c-1.3,0-1.7,0.3-1.7,1.6c0.1,4.6,0.1,9.2,0,13.8c0,1.3,0.4,1.6,1.7,1.6 c15.8,0,31.6,0,47.4-0.1c1.4,0,1.7,0.4,1.7,1.7c-0.1,5.6,0,11.2,0,16.9c0,1.8,0,1.8-1.7,1.8c-24.7,0-49.4,0-74,0 c-1.4,0-1.7-0.4-1.7-1.7C1159.6,335.1,1159.6,319.7,1159.6,304.3z"></path> <path id="XMLID_40_" class="st4" d="M1244.7,286.9c0.6,0,1.1-0.1,1.6-0.1c6.4,0,12.9,0,19.3,0c1.3,0,1.7,0.5,1.8,1.6 c0.1,2.1,0.3,4.2,0.5,6.3c0.1,0,0.2,0.1,0.4,0.1c0.9-1,1.9-2,2.8-3c6.9-6.8,17.6-9,25.8-5.1c2,1,3.8,2.6,5.6,4.1 c1,0.8,1.8,2,2.9,3.3c0.2-0.4,0.4-0.8,0.7-1.1c5.8-6.4,13.1-8.6,21.5-8.1c3.5,0.2,6.7,1.2,9.4,3.5c3.4,2.9,4.9,6.7,5.3,11 c0.2,2.3,0.3,4.7,0.3,7.1c0,14.6,0,29.3,0,43.9c0,1.3-0.3,1.7-1.6,1.7c-6.9-0.1-13.8-0.1-20.8,0c-1.4,0-1.7-0.4-1.7-1.8 c0-11.9,0-23.7,0-35.6c0-1.8-0.3-3.7-0.8-5.5c-0.7-2.7-2.4-3.9-5.2-4c-2.7-0.1-4.8,1.1-5.5,3.7c-0.6,2.4-0.9,4.9-0.9,7.4 c-0.1,11.3,0,22.6,0,33.9c0,1.9,0,1.9-1.9,1.9c-6.8,0-13.6,0-20.4,0c-1.8,0-1.8,0-1.8-1.8c0-12.3,0-24.6-0.1-36.8 c0-1.7-0.5-3.5-1-5.2c-0.7-2.1-2.5-2.9-4.7-2.9c-2.3,0-4.4,0.5-5.5,2.8c-1,2-1.3,4.1-1.3,6.2c0,11.9,0,23.8,0,35.8c0,2,0,2-2,2 c-7,0-13.9,0-20.9,0c-1.1,0-1.6-0.2-1.6-1.5c0-20.9,0-41.8,0-62.7C1244.7,287.8,1244.7,287.4,1244.7,286.9z"></path> <path id="XMLID_37_" class="st4" d="M1379.6,236.3c-4,4.4-9,6.2-14.3,6.9c-7.3,1-14.5,0.5-20.9-3.7c-5.3-3.5-8-8.7-8.4-14.9 c-0.9-13.7,9-24.4,22.6-25.8c7.3-0.8,14.2,0.7,20.6,4.3c0.3,0.2,0.6,0.3,0.9,0.5c1.4-4.3-0.3-8.4-4.4-10.1c-4.5-1.9-9.3-2-14.1-1.6 c-5.6,0.4-11,1.9-16.3,4.4c-2.2-5.2-4.3-10.4-6.5-15.8c1.7-0.7,3.4-1.4,5-2c9.9-3.3,20.1-4.6,30.6-4c4.4,0.3,8.7,0.9,12.8,2.5 c9.9,3.6,15.4,11,17.2,21.2c0.5,3,0.7,6.1,0.7,9.2c0.1,10.8,0,21.7,0,32.5c0,1.7,0,1.7-1.8,1.7c-7.1,0-14.3,0-21.4,0 c-1.2,0-1.8-0.1-1.8-1.5C1380.1,238.9,1379.8,237.8,1379.6,236.3z M1370.1,228.4c3.1-0.1,6.2-0.7,8.6-3.1c2.7-2.6,2.9-6.8,0.4-9.6 c-1.6-1.8-3.8-2.8-6.1-3.3c-4.1-0.9-8.1-0.6-11.5,2.3c-4,3.5-3.4,9.1,1.2,11.8C1365,227.8,1367.4,228.3,1370.1,228.4z"></path> <path id="XMLID_36_" class="st4" d="M1161.3,241.4c-8.2,0-16.3,0-24.4,0c0-0.5-0.1-0.9-0.1-1.4c0-20.8,0-41.6,0-62.4 c0-1.2,0.3-1.6,1.5-1.6c6.9,0.1,13.8,0,20.8,0c1.1,0,1.5,0.3,1.6,1.4c0.1,1.7,0.3,3.4,0.4,5.1c0.1,0.7,0.1,1.4,0.2,2.3 c1.4-1.3,2.5-2.5,3.7-3.5c6.7-5.8,14.3-8.1,23.1-6.5c7,1.3,10.7,5.9,12.3,12.5c0.4,1.7,0.5,3.4,0.5,5.2c0,15.7,0,31.4,0,47.1 c0,0.5,0,1.1,0,1.8c-0.5,0-1,0.1-1.5,0.1c-7.2,0-14.4,0-21.6,0c-1.2,0-1.6-0.3-1.6-1.6c0-11.6,0-23.2,0-34.8c0-1.6-0.1-3.2-0.4-4.8 c-0.8-4.1-3.3-6.1-7.3-6c-3.8,0.1-6.4,2.5-7,6.5c-0.2,1.4-0.3,2.8-0.3,4.1c0,11.6,0,23.1,0,34.7 C1161.3,240.2,1161.3,240.8,1161.3,241.4z"></path> <path id="XMLID_33_" class="st4" d="M1536.3,323.4c-1,0-1.6,0-2.1,0c-14,0-28,0-42,0c-1.8,0-1.8,0-1.4,1.8 c1.3,5.3,6.4,9.3,11.9,9.5c5.6,0.3,10.2-1.8,13.7-6.4c5.8,3.4,11.5,6.7,17.4,10.2c-1.4,2.8-3.2,5.1-5.5,7.1 c-5.3,4.5-11.4,7.3-18.3,8.1c-8.7,1.1-17.2,0.3-25.2-3.4c-10.9-5-17.8-13.4-19.4-25.4c-2.6-19.3,8.8-36.1,28.8-39.5 c9.9-1.7,19.3-0.4,27.8,5.3c7.8,5.3,12.1,12.8,13.6,22C1536,316.2,1536,319.7,1536.3,323.4z M1511.9,314c0-0.5,0-0.8,0-1.2 c-0.7-5.6-4.4-9.3-10-9.7c-6.8-0.5-10.9,3.4-11.5,9.4c-0.1,1.2,0.2,1.6,1.5,1.6c6.2-0.1,12.4,0,18.6,0 C1510.9,314.1,1511.4,314,1511.9,314z"></path> <path id="XMLID_30_" class="st4" d="M1083.9,212.8c-0.1,4.3,3.4,8.9,8,10.5c5.3,1.9,12.8,1.1,17.8-5.5c5.7,3.4,11.5,6.7,17.4,10.2 c-0.6,0.9-1.1,1.9-1.7,2.7c-4.8,6.7-11.6,10.4-19.4,12c-9.7,1.9-19.4,1.2-28.5-3.2c-12.4-6-18.9-15.9-19.1-29.7 c-0.2-9.5,2.7-17.8,9.3-24.7c5.7-6,12.8-9.3,20.9-10.4c7.2-1,14.3-0.4,21.1,2.5c10.7,4.7,16.9,12.9,19,24.3 c0.7,3.6,0.7,7.4,1.1,11.3C1114.2,212.8,1099.1,212.8,1083.9,212.8z M1083.7,203.3c7.3,0,14.4,0,21.6,0c-0.2-4.1-1.7-7.5-5.3-9.4 c-4.1-2.2-8.4-2.1-12.3,0.6C1084.7,196.5,1083.7,199.7,1083.7,203.3z"></path> <path id="XMLID_27_" class="st4" d="M1277.2,227.9c-1.9,3.6-4.4,6.5-7.5,8.7c-6.3,4.5-13.3,6.7-21,6.9c-10.5,0.3-20.2-2-28.5-8.7 c-7-5.7-10.8-13.2-11.6-22.2c-0.6-7.1,0.6-13.9,3.9-20.2c4.3-8.1,11-13.5,19.7-16.2c10.2-3.2,20.3-2.8,29.9,2.1 c9.6,4.9,15,13.1,16.8,23.6c0.6,3.5,0.6,7.2,0.9,10.9c-15.5,0-30.6,0-45.7,0c0,4.2,3.3,8.9,8,10.4c7.1,2.4,13,0.4,17.8-5.4 C1265.6,221.2,1271.3,224.5,1277.2,227.9z M1255.5,203.3c-0.3-4.1-1.7-7.4-5.2-9.3c-4.1-2.2-8.4-2.2-12.3,0.4 c-3.1,2-4.2,5.3-4.1,8.9C1241.1,203.3,1248.2,203.3,1255.5,203.3z"></path> <path id="XMLID_24_" class="st4" d="M1578.1,285c8.1-0.1,15.6,1.9,22.1,7c7.2,5.6,11.3,13.1,12.5,22.1c1.3,9.4-0.5,18.1-6,25.9 c-5.5,7.9-13.2,12.3-22.7,13.7c-8.8,1.3-17.4,0.4-25.2-4.1c-9.7-5.5-15.3-14-16.8-25c-1.4-10.9,1.3-20.6,8.9-28.7 c5.8-6.2,13.1-9.6,21.5-10.6c0.9-0.1,1.9-0.2,2.8-0.3C1576.2,284.9,1577.1,285,1578.1,285z M1560.6,319.2c0,9.2,7.2,16.5,16.4,16.6 c9,0,16.4-7.3,16.4-16.4c0-9.1-7.3-16.5-16.3-16.6C1568,302.8,1560.6,310.1,1560.6,319.2z"></path> <path id="XMLID_21_" class="st4" d="M1554.2,174.2c9.1,0,17.4,2.5,24.2,8.8c6.5,6,9.9,13.5,10.7,22.2c0.8,8.7-1,16.7-6,23.9 c-5.6,8.1-13.4,12.6-23.1,14c-8,1.2-15.8,0.5-23.1-3.1c-10.9-5.4-17.2-14.2-18.7-26.2c-1.4-11.3,1.6-21.2,9.8-29.3 c5.7-5.7,12.7-8.8,20.6-9.8C1550.4,174.4,1552.3,174.3,1554.2,174.2z M1536.3,210c0,9.1,7.4,16.6,16.4,16.6 c9.1,0,16.5-7.5,16.5-16.5c0-9-7.4-16.4-16.4-16.4C1543.7,193.6,1536.3,201,1536.3,210z"></path> <path id="XMLID_20_" class="st4" d="M1479,189.6c-6.4,4.8-12.7,9.6-19.1,14.5c-2.4-4.6-5.6-7.9-11.1-8c-3.5,0-6.4,1.3-8.8,3.8 c-5,5.1-4.5,13.6,0.9,18.2c4.7,4,14.3,4.2,18.8-4.1c6.4,4.6,12.9,9.3,19.3,13.9c-3.2,5.1-7.6,8.9-12.8,11.7 c-6.1,3.2-12.6,4.2-19.4,3.9c-7.1-0.3-13.7-2.1-19.6-6.2c-8.3-5.8-12.9-13.9-14-23.9c-1.2-10.9,1.8-20.4,9.4-28.3 c5.2-5.5,11.7-8.7,19.1-10c8-1.4,15.9-0.9,23.4,2.5C1470.9,180.1,1475.5,184.1,1479,189.6z"></path> <path id="XMLID_19_" class="st4" d="M1432.8,304.5c0-15.4,0-30.8,0-46.2c0-1.3,0.4-1.6,1.7-1.6c7.1,0.1,14.2,0.1,21.3,0 c1.3,0,1.6,0.4,1.6,1.7c0,30.7,0,61.5,0,92.2c0,1.4-0.4,1.7-1.7,1.7c-7-0.1-14.1-0.1-21.1,0c-1.4,0-1.7-0.4-1.7-1.7 C1432.8,335.2,1432.8,319.8,1432.8,304.5z"></path> <path id="XMLID_18_" class="st4" d="M1311.3,241.4c-8.1,0-16.1,0-24.3,0c0-0.5-0.1-0.9-0.1-1.4c0-20.8,0-41.6,0-62.4 c0-1.3,0.4-1.6,1.6-1.6c6.8,0,13.6,0.1,20.4,0c1.3,0,1.8,0.3,1.8,1.7c-0.1,3.7,0,7.3,0,11c0,0.5,0.1,1,0.1,1.9 c0.3-0.5,0.6-0.7,0.6-0.9c1.4-8.2,6.8-12.5,14.3-14.5c2.6-0.7,5.5-0.7,8.2-1c0.8-0.1,1.2,0.3,1.2,1.1c0,8.3,0,16.7,0,25 c0,1-0.6,1.1-1.3,1.2c-2.7,0.3-5.5,0.3-8.1,0.9c-8.6,2.1-13.7,8.2-14,16.9c-0.3,6.7-0.2,13.4-0.2,20.1 C1311.3,240.2,1311.3,240.8,1311.3,241.4z"></path> <path id="XMLID_17_" class="st4" d="M1510,241.4c-8.1,0-16.1,0-24.3,0c0-0.6,0-1.1,0-1.7c0-20.6,0-41.2,0-61.8c0-1.8,0-1.9,1.8-1.9 c6.9,0,13.8,0,20.7,0c1.8,0,1.8,0,1.8,1.7c0,20.7,0,41.4,0,62.1C1510.1,240.4,1510,240.9,1510,241.4z"></path> <path id="XMLID_14_" class="st4" d="M1206.5,104.7c-0.2-3.3,0-6.6-0.5-9.8c-0.8-4.4-3.8-7.5-7.5-9.8c-4.9-3-10.4-4.1-16.1-4.1 c-4.3,0.1-8.4,0.7-12.6,1.9c-0.5-1.9-1.1-3.8-1.5-5.7c0-0.2,0.5-0.8,0.9-0.8c2.5-0.4,4.9-0.9,7.4-1.1c4.4-0.2,8.7-0.6,13.1-0.3 c9,0.7,16.6,4.3,21.2,12.6c2.1,3.9,2.8,8.2,2.8,12.6c0,13.5,0,27,0,40.6c0,0.3-0.1,0.7-0.1,1.2c-2,0-4,0-6-0.1 c-0.3,0-0.7-0.7-0.7-1.1c-0.2-1.6-0.3-3.1-0.4-4.9c-0.4,0.2-0.6,0.3-0.7,0.5c-5.3,4.9-11.6,7.1-18.7,7.5 c-6.5,0.4-12.7-0.6-18.2-4.2c-8.6-5.6-12.1-13.8-10.7-23.8c1.4-9.7,7.7-15.6,16.7-18.4c10.5-3.3,20.2-1.4,28.8,5.4 c0.8,0.6,1.6,1.2,2.4,1.9C1206.2,104.8,1206.4,104.7,1206.5,104.7z M1184.9,137.4c5.5,0,10.7-1.7,15.1-5.3 c8.3-6.8,8.4-18.1,0.1-24.5c-7.7-6-19.9-6.4-28-0.9c-9,6.1-10,18-2,25.3C1174.2,135.7,1179.2,137.4,1184.9,137.4z"></path> <path id="XMLID_13_" class="st4" d="M1236.5,142c0-21.8,0-43.5,0-65.3c2.2,0,4.4,0,6.7,0c0.2,3.8,0.4,7.7,0.5,11.9 c1.3-1.3,2.4-2.4,3.6-3.4c5-4.8,10.8-8.3,17.7-9.7c4.5-0.9,8.9-1,13.4,0.1c6.9,1.6,11.7,6.8,12.8,13.8c0.4,2.5,0.6,5.1,0.6,7.7 c0.1,14.4,0,28.7,0,43.1c0,0.6,0,1.1,0,1.8c-2.4,0-4.7,0-7.1,0c0-0.5-0.1-1.1-0.1-1.7c0-14.5,0-29,0-43.5c0-2.3-0.2-4.7-0.8-7 c-1.2-5.2-5.4-8.5-10.8-9.1c-10.4-1-18.2,3.5-24.7,11.1c-4.6,5.4-4.5,5.5-4.5,12.5c0,12,0,24,0,36c0,0.5,0,1.1,0,1.7 C1241.3,142,1239,142,1236.5,142z"></path> <path id="XMLID_12_" class="st4" d="M1485.8,146.3c8.2,0,16.4,0,24.6,0c0,0.4,0.1,0.7,0.1,1c0,6.2,0,12.3,0,18.5 c0,1.1-0.3,1.4-1.4,1.4c-7.4,0-14.8,0-22.2,0c-0.9,0-1.3-0.2-1.3-1.2c0-6.3,0-12.7,0-19C1485.7,146.8,1485.8,146.6,1485.8,146.3z"></path> <path id="XMLID_9_" class="st4" d="M1081,346c-6.7,9.2-19.6,8.2-25.5,2.8c-6.7-6.1-7.7-17.6-1.8-25.1c3.5-4.4,8.2-6.4,13.7-6.2 c5.5,0.2,9.8,2.7,13.6,7c0-0.8,0.1-1.3,0.1-1.8c0-6.2,0-12.5,0-18.7c0-1.2,0.3-1.7,1.6-1.6c0.4,0.1,0.9-0.1,1.3,0.1 c0.3,0.1,0.7,0.5,0.8,0.8c0.1,0.5,0,1.1,0,1.6c0,15.3,0,30.5,0,45.8c0,0.5-0.2,1.3-0.4,1.4c-0.9,0.1-1.8,0-2.8-0.1 c-0.1,0-0.2-0.6-0.2-1C1081.2,349.5,1081.1,347.9,1081,346z M1066.8,321.2c-7.8,0-13.2,5.9-13.3,14.2c0,8.4,5.5,14.1,13.6,14.1 c8,0,13.6-5.7,13.6-13.9C1080.8,327.3,1074.8,321.2,1066.8,321.2z"></path> <path id="XMLID_6_" class="st4" d="M1130.4,336.6c-10.6,0-21.1,0-31.6,0c-0.3,4.8,3.3,9.7,7.7,11.8c6.1,2.9,12.6,1.1,18.9-5.5 c0.5,0.3,1,0.6,1.4,0.9c0.5,0.3,0.9,0.6,1.4,0.9c-3.9,7.5-14.8,10.8-23.2,7.1c-9.2-4-12.1-14.6-9.3-23.1 c3.2-9.6,13.6-13.2,22.3-10.9C1127.7,320.4,1131.4,330.4,1130.4,336.6z M1126.8,332.8c0.2-3.7-2.8-8.4-7-10.4 c-5.4-2.7-10.8-2.5-15.8,0.9c-3.3,2.2-5.1,5.4-5.4,9.5C1108.1,332.8,1117.4,332.8,1126.8,332.8z"></path> <path id="XMLID_5_" class="st4" d="M1546.2,168.8c0.6-1.5,1.1-2.8,1.6-4.1c2.4-5.9,4.7-11.8,7.1-17.7c0.4-1,0.9-1.4,2-1.3 c5.8,0.7,11.7,1.3,17.5,2c0.9,0.1,1.8,0.2,3,0.4c-0.6,0.8-1,1.4-1.5,2c-4.5,5.9-8.9,11.8-13.3,17.8c-0.6,0.8-1.2,1.1-2.2,1.1 c-4.2-0.1-8.5,0-12.7,0C1547.2,168.9,1546.8,168.9,1546.2,168.8z"></path> <path id="XMLID_4_" class="st1" d="M1577.1,306.6c6.1-0.3,12.6,4.9,12.6,12.7c0,7.7-6.5,12.8-12.9,12.7 c-6.9-0.1-12.6-5.8-12.5-12.8C1564.4,311.6,1570.8,306.3,1577.1,306.6z"></path> <path id="XMLID_3_" class="st2" d="M1388,306.6c6.1-0.3,12.6,4.9,12.6,12.7c0,7.7-6.5,12.8-12.9,12.7c-6.9-0.1-12.6-5.8-12.5-12.8 C1375.2,311.6,1381.7,306.3,1388,306.6z"></path> <path id="XMLID_2_" class="st3" d="M1552.9,197.3c7,0,12.7,5.8,12.7,12.8c0,7.1-5.8,12.9-12.8,12.9c-7.1,0-13-5.9-12.9-13.1 C1539.9,202.8,1545.8,197.2,1552.9,197.3z"></path> </g> </svg> 